<?xml version="1.0" standalone="no"?>
<!DOCTYPE svg PUBLIC "-//W3C//DTD SVG 1.0//EN" "http://www.w3.org/TR/2001/REC-SVG-20010904/DTD/svg10.dtd">
<svg xmlns="http://www.w3.org/2000/svg" xmlns:xlink="http://www.w3.org/1999/xlink" id="body_1" width="1218" height="987">

<g transform="matrix(1.604027 0 0 1.604027 0.5364542 -0)">
    <path transform="matrix(1 0 0 1 -220.66498 -142.33682)"  d="M826.3304 254.42004C 822.3893 297.84335 811.1615 343.63086 793.5528 387.8097C 771.7774 442.4427 742.02673 490.56323 707.5161 526.9689L707.5161 526.9689L705.60095 525.29895C 739.9445 489.06842 769.55994 441.1603 791.2444 386.7533C 810.84186 337.5867 822.4982 286.42142 824.9687 238.8115L824.9687 238.8115L827.41595 239.2212C 827.1564 244.2494 826.79456 249.31569 826.3304 254.42004z" stroke="none" fill="#F2F2F2" fill-rule="nonzero" />
    <path transform="matrix(1 0 0 1 -220.66498 -142.33682)"  d="M842.0269 506.61453C 793.55444 583.7306 734.74713 638.8303 676.43677 661.76263L676.43677 661.76263L675.2572 659.6001C 733.164 636.82623 791.627 582.00854 839.878 505.245L839.878 505.245L842.0269 506.61453z" stroke="none" fill="#F2F2F2" fill-rule="nonzero" />
    <path transform="matrix(1 0 0 1 -220.66498 -142.33682)"  d="M825.15393 308.4838C 821.2128 351.9071 809.98505 397.69458 792.37634 441.87344C 770.601 496.5064 740.8503 544.627 706.33966 581.0326L706.33966 581.0326L704.4245 579.3627C 738.76807 543.13214 768.3835 495.22403 790.06793 440.81702C 809.6654 391.65042 821.3218 340.48514 823.79224 292.8752L823.79224 292.8752L826.2395 293.28494C 825.97986 298.31314 825.618 303.37943 825.15393 308.4838z" stroke="none" fill="#F2F2F2" fill-rule="nonzero" />
    <path transform="matrix(1 0 0 1 -220.66498 -142.33682)"  d="M280.99075 419.96463L249.18706 419.96463C 247.81044 419.96753 246.5082 419.34024 245.65239 418.262C 244.80693 417.2112 244.48904 415.83118 244.7896 414.5164C 247.81859 401.15118 247.6283 387.2575 244.23442 373.98026C 243.79523 372.19174 244.48784 370.3159 245.98393 369.24197C 262.33746 357.48026 275.21634 357.82156 284.26324 370.2581C 284.67105 370.82495 284.942 371.4786 285.05475 372.16776C 287.472 386.69968 287.60577 401.51984 285.45123 416.09305C 285.14157 418.3173 283.23648 419.97086 280.99075 419.96463z" stroke="none" fill="#E6E6E6" fill-rule="nonzero" />
    <path transform="matrix(1 0 0 1 -220.66498 -142.33682)"  d="M271.1308 388.1158L260.19028 388.1158C 258.93045 388.1158 257.90918 387.09454 257.90918 385.83472C 257.90918 384.5749 258.93045 383.55362 260.19028 383.5536L260.19028 383.5536L271.1308 383.5536C 272.38763 383.55777 273.4043 384.57782 273.4043 385.8347C 273.4043 387.09155 272.38763 388.1116 271.1308 388.11578L271.1308 388.11578L271.1308 388.1158z" stroke="none" fill="#FFFFFF" fill-rule="nonzero" />
    <path transform="matrix(1 0 0 1 -220.66498 -142.33682)"  d="M271.1308 396.1158L260.19028 396.1158C 258.93045 396.1158 257.90918 395.09454 257.90918 393.83472C 257.90918 392.5749 258.93045 391.55362 260.19028 391.5536L260.19028 391.5536L271.1308 391.5536C 272.38763 391.55777 273.4043 392.57782 273.4043 393.8347C 273.4043 395.09155 272.38763 396.1116 271.1308 396.11578L271.1308 396.11578L271.1308 396.1158z" stroke="none" fill="#FFFFFF" fill-rule="nonzero" />
    <path transform="matrix(1 0 0 1 -220.66498 -142.33682)"  d="M271.1308 404.1158L260.19028 404.1158C 258.93045 404.1158 257.90918 403.09454 257.90918 401.83472C 257.90918 400.5749 258.93045 399.55362 260.19028 399.5536L260.19028 399.5536L271.1308 399.5536C 272.38763 399.55777 273.4043 400.57782 273.4043 401.8347C 273.4043 403.09155 272.38763 404.1116 271.1308 404.11578L271.1308 404.11578L271.1308 404.1158z" stroke="none" fill="#FFFFFF" fill-rule="nonzero" />
    <path transform="matrix(1 0 0 1 -220.66498 -142.33682)"  d="M858.9908 561.9646L827.1871 561.9646C 825.8105 561.9675 824.50824 561.3403 823.6524 560.26196C 822.80695 559.2111 822.4891 557.8311 822.7896 556.51636C 825.8186 543.1511 825.6283 529.25745 822.23444 515.9802C 821.7952 514.1917 822.48785 512.31586 823.98395 511.24194C 840.33746 499.48022 853.2164 499.82153 862.26324 512.25806C 862.6711 512.8249 862.942 513.4785 863.05475 514.1677C 865.472 528.6997 865.6057 543.51984 863.45123 558.093C 863.14154 560.31726 861.23645 561.9708 858.9908 561.9646z" stroke="none" fill="#E6E6E6" fill-rule="nonzero" />
    <path transform="matrix(1 0 0 1 -220.66498 -142.33682)"  d="M849.1308 530.11584L838.19025 530.11584C 836.93335 530.11163 835.9167 529.09155 835.9167 527.8347C 835.9167 526.5779 836.93335 525.5578 838.19025 525.55365L838.19025 525.55365L849.13074 525.55365C 850.3892 525.55554 851.40845 526.57623 851.40845 527.8347C 851.40845 529.0932 850.3892 530.1139 849.13074 530.11584L849.13074 530.11584L849.1308 530.11584z" stroke="none" fill="#FFFFFF" fill-rule="nonzero" />
    <path transform="matrix(1 0 0 1 -220.66498 -142.33682)"  d="M849.1308 538.11584L838.19025 538.11584C 836.93335 538.11163 835.9167 537.09155 835.9167 535.8347C 835.9167 534.5779 836.93335 533.5578 838.19025 533.55365L838.19025 533.55365L849.13074 533.55365C 850.3892 533.55554 851.40845 534.57623 851.40845 535.8347C 851.40845 537.0932 850.3892 538.1139 849.13074 538.11584L849.13074 538.11584L849.1308 538.11584z" stroke="none" fill="#FFFFFF" fill-rule="nonzero" />
    <path transform="matrix(1 0 0 1 -220.66498 -142.33682)"  d="M849.1308 546.11584L838.19025 546.11584C 836.93335 546.11163 835.9167 545.09155 835.9167 543.8347C 835.9167 542.5779 836.93335 541.5578 838.19025 541.55365L838.19025 541.55365L849.13074 541.55365C 850.3892 541.55554 851.40845 542.57623 851.40845 543.8347C 851.40845 545.0932 850.3892 546.1139 849.13074 546.11584L849.13074 546.11584L849.1308 546.11584z" stroke="none" fill="#FFFFFF" fill-rule="nonzero" />
    <path transform="matrix(1 0 0 1 -220.66498 -142.33682)"  d="M979.335 756.4732C 979.33594 756.7892 979.2109 757.0924 978.9875 757.3158C 978.7641 757.5392 978.4609 757.66425 978.14496 757.6632L978.14496 757.6632L221.855 757.6632C 221.19777 757.6632 220.665 757.13043 220.665 756.4732C 220.665 755.816 221.19777 755.2832 221.855 755.2832L221.855 755.2832L978.14496 755.2832C 978.4608 755.2822 978.7641 755.4073 978.9875 755.6307C 979.2109 755.854 979.33594 756.1573 979.335 756.4732z" stroke="none" fill="#CCCCCC" fill-rule="nonzero" />
    <path transform="matrix(1 0 0 1 -220.66498 -142.33682)"  d="M420.1685 683.6129L418.185 656.0244C 405.19153 649.5291 390.809 646.30383 376.28613 646.62854C 396.7178 662.42145 395.08124 693.98615 409.23123 715.58813C 418.2755 729.1674 433.0047 737.89636 449.2589 739.30975L449.2589 739.30975L466.263 749.0923C 470.19952 723.0744 462.54602 696.6373 445.3188 676.7463C 440.4887 671.2798 434.98944 666.4433 428.95084 662.351C 425.23407 673.0221 420.1685 683.6129 420.1685 683.6129z" stroke="none" fill="#F2F2F2" fill-rule="nonzero" />
    <path transform="matrix(1 0 0 1 -220.66498 -142.33682)"  d="M779.8315 687.6129L781.815 660.0244C 794.8084 653.5291 809.191 650.30383 823.71387 650.62854C 803.2822 666.42145 804.91876 697.98615 790.76874 719.58813C 781.7244 733.1675 766.99524 741.8964 750.7411 743.30975L750.7411 743.30975L733.737 753.0923C 729.8004 727.0744 737.454 700.6373 754.6812 680.7463C 759.5113 675.2798 765.0105 670.44336 771.04913 666.351C 774.7659 677.0221 779.8315 687.6129 779.8315 687.6129z" stroke="none" fill="#F2F2F2" fill-rule="nonzero" />
    <path d="M389.33502 214.94235C 389.33505 209.69565 387.48004 205.21732 383.77005 201.50732C 380.06006 197.79735 375.58173 195.94235 370.33502 195.94235C 365.08832 195.94235 360.61 197.79735 356.9 201.50732C 353.19003 205.21732 351.33502 209.69565 351.33502 214.94235C 351.33502 220.18906 353.19003 224.6674 356.9 228.37738C 360.61 232.08737 365.08832 233.94237 370.33502 233.94235C 375.58173 233.94237 380.06006 232.08737 383.77005 228.37738C 387.48004 224.6674 389.33505 220.18906 389.33502 214.94235" stroke="none" fill="#1890FF" fill-rule="nonzero" />
    <path transform="matrix(1 0 0 1 -220.66498 -142.33682)"  d="M600.7535 349.3606C 600.1598 348.79422 599.2258 348.79422 598.63214 349.3606C 594.6006 352.57596 590.9795 356.2746 587.85034 360.3734C 587.08215 358.88702 586.31396 357.40063 585.5458 355.91418C 584.65906 354.1985 582.0694 355.7141 582.9554 357.42834C 584.07904 359.60248 585.20264 361.7766 586.3262 363.95068C 586.6018 364.40204 587.0925 364.67737 587.6214 364.67737C 588.15027 364.67737 588.641 364.40204 588.9166 363.95068C 592.2512 359.25433 596.23676 355.05603 600.7535 351.48193C 601.33435 350.8941 601.33435 349.94843 600.7535 349.3606z" stroke="none" fill="#FFFFFF" fill-rule="nonzero" />
    <path transform="matrix(1 0 0 1 -220.66498 -142.33682)"  d="M505.98468 411.15628L477.33316 366.1606L510.51093 348.3923L519.21893 382.722L580.57434 415.87683C 587.3265 413.44684 594.787 416.82657 597.41284 423.50504C 600.0387 430.18347 596.8779 437.73935 590.2789 440.5588C 583.6798 443.3783 576.03503 440.43918 573.02435 433.92514L573.02435 433.92514L505.98468 411.15628z" stroke="none" fill="#A0616A" fill-rule="nonzero" />
    <path transform="matrix(1 0 0 1 -220.66498 -142.33682)"  d="M456.4002 312.19272C 447.39774 325.41037 479.3901 373.45544 479.3901 373.45544C 480.94867 370.09598 495.8471 407.82144 498.34253 405.59296C 505.4346 399.25925 516.5365 381.6166 522.7076 380.83017C 526.2367 380.3804 514.5227 355.35168 514.5227 355.35168C 514.5227 355.35168 509.1691 340.57227 501.9045 321.693C 497.9313 310.76694 488.63666 302.63876 477.2785 300.1575C 477.2785 300.1575 465.40268 298.9751 456.4002 312.19272z" stroke="none" fill="#3F3D56" fill-rule="nonzero" />
    <path d="M236.175 600.491L249.782 600.49L256.255 548.005L236.172 548.006L236.175 600.491L236.175 600.491" stroke="none" fill="#A0616A" fill-rule="nonzero" />
    <path transform="matrix(1 0 0 1 -220.66498 -142.33682)"  d="M453.36847 738.385L457.19846 738.3848L472.15155 732.3038L480.16595 738.3839L480.16702 738.3839C 489.59833 738.3844 497.24384 746.0298 497.2445 755.4611L497.2445 755.4611L497.2445 756.0161L453.3692 756.01776L453.36847 738.385z" stroke="none" fill="#2F2E41" fill-rule="nonzero" />
    <path d="M299.391 600.491L312.998 600.49L319.472 548.005L299.389 548.006L299.391 600.491L299.391 600.491" stroke="none" fill="#A0616A" fill-rule="nonzero" />
    <path transform="matrix(1 0 0 1 -220.66498 -142.33682)"  d="M516.5851 738.385L520.41516 738.3848L535.3682 732.3038L543.3826 738.3839L543.3837 738.3839C 552.81506 738.38434 560.4606 746.0297 560.46124 755.4611L560.46124 755.4611L560.46124 756.0161L516.58594 756.01776L516.5851 738.385z" stroke="none" fill="#2F2E41" fill-rule="nonzero" />
    <path transform="matrix(1 0 0 1 -220.66498 -142.33682)"  d="M525.946 455.88858L437.43875 458.10126C 420.62933 467.23126 420.37408 486.99197 425.88174 510.45358C 425.88174 510.45358 424.02243 524.3984 427.7411 528.117C 431.45975 531.83563 433.31903 531.83563 431.45972 538.3432C 429.6004 544.85077 439.424 555.4796 438.23083 556.6728C 437.03766 557.86597 434.2487 564.37354 434.2487 564.37354L434.2487 564.37354L443.54526 617.3639C 443.54526 617.3639 450.05286 709.39984 451.91217 711.25916C 453.77148 713.11847 455.6308 711.25916 453.77148 715.9074C 451.91217 720.55566 450.05286 718.6964 451.91217 720.55566C 453.5592 722.3314 455.11078 724.19336 456.56046 726.1336L456.56046 726.1336L479.0369 726.1336C 479.0369 726.1336 480.7315 716.83704 480.7315 715.9074C 480.7315 714.9778 482.59082 709.39984 482.59082 708.47015C 482.59082 707.54047 480.94745 705.89716 480.94745 705.89716C 480.37958 704.0074 479.9959 702.0671 479.80185 700.1033C 479.80185 698.24396 474.2239 626.66046 474.2239 626.66046L474.2239 626.66046L485.37973 533.695L512.3397 624.8013C 512.3397 624.8013 512.3397 704.75165 514.19904 706.61096C 516.05835 708.4703 516.05835 707.5406 515.1287 711.2592C 514.1991 714.97784 510.48044 714.0482 513.2694 716.83716C 516.05835 719.6261 516.98804 714.97784 516.0584 719.62616L516.0584 719.62616L515.1288 724.2744L543.01843 724.67334C 543.01843 724.67334 546.73706 716.83716 544.87775 714.04816C 543.01843 711.25916 543.13 712.0205 545.3984 707.45636C 547.66675 702.8922 548.5964 701.9626 547.66675 701.03296C 546.7371 700.10333 546.7371 695.15857 546.7371 695.15857L546.7371 695.15857L542.08887 606.20807C 542.08887 606.20807 541.1592 512.3128 541.1592 509.52386C 541.0891 508.08878 541.35345 506.657 541.93146 505.34155L541.93146 505.34155L541.93146 501.556L538.37024 488.14188L525.946 455.88858z" stroke="none" fill="#2F2E41" fill-rule="nonzero" />
    <path d="M279.6132 102.01522C 279.6132 94.42139 276.92838 87.93965 271.55872 82.56999C 266.1891 77.20035 259.70734 74.51552 252.1135 74.51552C 244.51968 74.51552 238.03793 77.20035 232.66827 82.56999C 227.29863 87.93965 224.6138 94.42139 224.6138 102.01522C 224.6138 109.609055 227.29863 116.0908 232.66827 121.46045C 238.03793 126.8301 244.51968 129.51492 252.1135 129.51492C 259.70734 129.51492 266.1891 126.8301 271.55872 121.46045C 276.92838 116.0908 279.6132 109.609055 279.6132 102.01522" stroke="none" fill="#A0616A" fill-rule="nonzero" />
    <path transform="matrix(1 0 0 1 -220.66498 -142.33682)"  d="M486.52832 290.02713C 492.45276 293.54926 495.99677 300.02063 498.0312 306.60583C 501.79764 318.79752 504.06482 331.4027 504.78253 344.14276L504.78253 344.14276L506.93134 382.2842L533.54395 463.49808C 510.47968 483.01392 423.78455 467.93347 423.78455 467.93347C 423.78455 467.93347 421.1233 467.04648 423.78455 464.38513C 426.4458 461.7238 429.03656 464.0816 426.37534 461.42032C 423.7141 458.75903 425.54865 461.72385 426.43576 459.06256C 427.32288 456.40128 426.43576 458.17557 425.54868 457.2884C 424.6616 456.4012 432.41605 448.41748 432.41605 448.41748L432.41605 448.41748L425.31934 401.8L416.4485 307.7688C 427.09357 294.4625 448.50214 286.61853 448.50214 286.61853L448.50214 286.61853L454.03384 276.66147L481.69235 278.87415L486.52832 290.02713z" stroke="none" fill="#3F3D56" fill-rule="nonzero" />
    <path transform="matrix(1 0 0 1 -220.66498 -142.33682)"  d="M495.44763 229.7419C 497.58493 231.33603 499.1684 233.56036 499.9751 236.10173C 500.285 231.94853 500.3047 227.77895 500.034 223.623C 499.70987 220.70265 497.65387 220.04576 495.27316 219.2846C 493.12317 218.59692 490.69168 217.82011 490.0375 214.98512C 481.39316 206.57574 466.34518 206.9998 456.0467 209.93312C 450.37994 211.54726 447.11926 213.62112 446.82755 214.83601L446.82755 214.83601L446.76706 215.08614L446.53693 215.2012C 442.16882 217.38525 441.31854 224.28206 441.37473 229.68303C 441.48114 239.85889 444.99463 251.41603 446.97394 252.3549C 447.07874 252.4046 447.1052 252.38515 447.15057 252.34735C 450.1309 249.96558 453.76703 252.52835 455.36493 253.92151C 457.30444 240.90666 467.87372 230.89455 480.97443 229.662C 483.05347 229.46106 485.11594 229.11522 487.14682 228.627C 488.17694 228.36049 489.23593 228.22153 490.3 228.21321C 492.13168 228.1854 493.928 228.71886 495.44763 229.7419z" stroke="none" fill="#2F2E41" fill-rule="nonzero" />
    <path transform="matrix(1 0 0 1 -220.66498 -142.33682)"  d="M666.1623 477.801L719.0617 424.0827L732.9989 381.11948L710.5708 372.04776C 699.4604 383.2547 688.0235 417.56268 688.0235 417.56268L688.0235 417.56268L651.9179 466.02106C 651.6296 466.1282 651.34216 466.2415 651.0589 466.37543C 646.47 468.54208 644.0376 473.6372 645.23834 478.56784C 646.4391 483.49844 650.9418 486.9047 656.0131 486.7188C 661.0844 486.53296 665.3257 482.80624 666.1623 477.801z" stroke="none" fill="#FFB8B8" fill-rule="nonzero" />
    <path transform="matrix(1 0 0 1 -220.66498 -142.33682)"  d="M704.4527 376.96255L732.8159 385.1674L732.9215 385.147C 743.34717 383.12268 751.5943 365.7967 756.6765 351.6185C 760.14575 341.915 755.5067 331.18243 746.0617 327.0609C 739.1918 324.11813 731.2471 325.32956 725.5665 330.1861L725.5665 330.1861L711.425 342.36337L704.4527 376.96255z" stroke="none" fill="#1890FF" fill-rule="nonzero" />
    <path d="M459.521 598.895L444.267 598.894L437.011 540.059L459.523 540.06L459.521 598.895L459.521 598.895" stroke="none" fill="#FFB8B8" fill-rule="nonzero" />
    <path transform="matrix(1 0 0 1 -220.66498 -142.33682)"  d="M684.077 736.25146L679.78357 736.2513L663.0212 729.43445L654.03705 736.25024L654.0358 736.25024C 643.4633 736.25085 634.89276 744.8213 634.892 755.39374L634.892 755.39374L634.892 756.0158L684.07605 756.01764L684.077 736.25146z" stroke="none" fill="#2F2E41" fill-rule="nonzero" />
    <path d="M527.204 598.895L511.95 598.894L504.694 540.059L527.207 540.06L527.204 598.895L527.204 598.895" stroke="none" fill="#FFB8B8" fill-rule="nonzero" />
    <path transform="matrix(1 0 0 1 -220.66498 -142.33682)"  d="M751.7602 736.25146L747.46674 736.2513L730.70435 729.43445L721.7202 736.25024L721.719 736.25024C 711.1465 736.25085 702.5759 744.8213 702.5752 755.39374L702.5752 755.39374L702.5752 756.0158L751.7592 756.01764L751.7602 736.25146z" stroke="none" fill="#2F2E41" fill-rule="nonzero" />
    <path transform="matrix(1 0 0 1 -220.66498 -142.33682)"  d="M771.1279 487.80634C 771.1279 487.80634 772.90906 509.17996 768.45624 529.663C 764.0034 550.1461 764.0034 607.8331 764.0034 607.8331L764.0034 607.8331L754.20715 720.2445L724.8184 717.5728L716.8033 529.663L688.3051 592.8933L690.9768 601.799L687.418 604.0254C 687.418 604.0254 690.08624 621.3915 688.3051 621.3915C 686.524 621.3915 682.0711 624.0632 682.0711 624.0632L682.0711 624.0632L685.63336 715.7916L655.35406 714.90106L644.6673 585.76886L656.2447 511.8517L657.13525 497.60263L661.1428 497.7674L663.1834 491.81396L666.9315 481.57245L771.1279 487.80634z" stroke="none" fill="#2F2E41" fill-rule="nonzero" />
    <path transform="matrix(1 0 0 1 -220.66498 -142.33682)"  d="M772.6673 492.29572L772.826 492.0731C 781.3029 480.20523 768.5536 451.68707 766.63074 447.55298L766.63074 447.55298L774.72974 444.92474L772.906 429.422L772.04193 422.51053L778.232 416.32053L778.2494 416.16617L781.81165 384.9963L786.9911 364.2936C 790.96454 348.35855 786.0327 331.51938 774.09045 320.24573L774.09045 320.24573L762.1182 308.95752L747.56824 287.4287L724.10474 287.4287L716.05963 302.62488C 699.9637 306.34497 688.82806 321.0392 689.5991 337.54138L689.5991 337.54138L691.4224 377.39645L684.2844 427.0195L684.2801 435.99997L676.2472 444.9274L678.00134 453.69785L671.8878 456.31784L669.1883 468.9145C 668.07117 470.3886 660.69745 480.2205 660.69745 482.90833C 660.69745 483.31186 660.9953 483.7019 661.6345 484.13464C 666.6596 487.53732 694.4342 494.47446 706.7269 489.55545C 719.82104 484.3199 771.8723 492.1741 772.3967 492.25412L772.3967 492.25412L772.6673 492.29572z" stroke="none" fill="#1890FF" fill-rule="nonzero" />
    <path d="M543.215 107.06758C 543.2151 98.48661 540.1812 91.16229 534.1135 85.09462C 528.0459 79.026955 520.72156 75.99312 512.14056 75.99312C 503.5596 75.99312 496.2353 79.026955 490.1676 85.09462C 484.09998 91.16229 481.06613 98.48661 481.0661 107.06758C 481.06613 115.64856 484.09998 122.972885 490.1676 129.04054C 496.2353 135.10822 503.5596 138.14204 512.14056 138.14204C 520.72156 138.14204 528.0459 135.10822 534.1135 129.04054C 540.1812 122.972885 543.2151 115.64856 543.215 107.06758" stroke="none" fill="#FFB8B8" fill-rule="nonzero" />
    <path transform="matrix(1 0 0 1 -220.66498 -142.33682)"  d="M729.8287 280.982C 734.6411 280.93283 739.4407 280.47266 744.1747 279.60657C 748.86145 278.52682 759.20215 270.53085 762.0204 265.80713C 764.1142 262.29745 765.3709 256.8688 766.05664 252.93303C 767.929 242.39929 765.2473 231.5656 758.6773 223.12164C 757.425 221.37242 755.72314 219.99422 753.7518 219.13278C 753.5774 219.06973 753.3982 219.0145 753.21735 218.96799C 750.35986 218.2945 747.7689 216.7823 745.7771 214.62556C 745.3904 214.18892 744.9728 213.7807 744.52734 213.40407C 742.2928 211.61502 739.6667 210.38019 736.8636 209.80049C 732.3351 208.71294 725.8572 210.07578 717.6103 213.85458C 713.46704 215.75313 708.8685 215.22348 705.3241 214.5499C 704.9198 214.48259 704.51013 214.63489 704.24786 214.94995C 702.7846 216.39648 700.828 217.23558 698.7714 217.29855C 697.513 217.3864 696.23627 219.16492 694.6973 221.48091C 694.34814 222.00664 693.9407 222.62021 693.645 222.99463L693.645 222.99463L693.5859 222.29147L692.8936 223.09547C 690.6815 225.66391 689.9401 229.18683 690.9294 232.42896C 691.9186 235.6711 694.50037 238.18007 697.76953 239.07613C 699.04553 239.38058 700.3493 239.55399 701.6605 239.5936C 702.45544 239.64447 703.2777 239.6971 704.0674 239.8132C 709.22723 240.73175 713.5251 244.29364 715.3856 249.1933C 715.82324 250.32144 716.76025 251.18225 717.9214 251.52293C 719.0825 251.86362 720.33606 251.64552 721.3139 250.9327C 722.94275 249.5954 725.123 249.13997 727.1509 249.71338C 728.0198 250.16756 728.70605 250.90665 729.09467 251.80673C 729.5646 252.80853 730.32227 253.64766 731.27106 254.21709C 734.50635 255.78079 734.9147 263.06754 733.9249 269.17627C 732.9709 275.06454 730.8953 279.35995 728.8777 279.62173C 727.3244 279.82306 727.1492 279.9383 727.0435 280.21664L727.0435 280.21664L726.94916 280.46582L727.13007 280.69196C 727.9982 280.98157 728.9187 281.0805 729.8287 280.982z" stroke="none" fill="#2F2E41" fill-rule="nonzero" />
    <path transform="matrix(1 0 0 1 -220.66498 -142.33682)"  d="M704.0476 380.2859L689.1109 361.254C 673.89624 365.44366 646.8998 389.50665 646.8998 389.50665L646.8998 389.50665L591.45825 413.56604C 586.34216 412.7064 581.34814 415.64716 579.61835 420.5381C 577.88855 425.42902 579.9232 430.85565 584.44214 433.4037C 588.9611 435.9517 594.65753 434.88422 597.94727 430.87286L597.94727 430.87286L670.57434 410.61115L704.0476 380.2859z" stroke="none" fill="#FFB8B8" fill-rule="nonzero" />
    <path transform="matrix(1 0 0 1 -220.66498 -142.33682)"  d="M700.4676 384.63693L724.0357 358.36435L725.34424 339.74835C 725.84106 332.29126 722.06287 325.19836 715.5971 321.45007C 706.64703 316.34177 695.26965 319.03888 689.56494 327.6212C 681.2373 340.17188 672.27856 357.1408 676.88824 366.70807L676.88824 366.70807L676.93494 366.80505L700.4676 384.63693z" stroke="none" fill="#1890FF" fill-rule="nonzero" />
    <path transform="matrix(1 0 0 1 -220.66498 -142.33682)"  d="M483.24426 483.38675L421.98987 452.0155C 417.63287 449.78406 416.1896 443.86533 418.7727 438.8217L418.7727 438.8217L458.71185 360.838C 461.29495 355.79437 466.94116 353.50647 471.2982 355.7379L471.2982 355.7379L532.55255 387.10916C 536.9096 389.34064 538.35284 395.25934 535.7698 400.303L535.7698 400.303L495.83066 478.28668C 493.24756 483.33035 487.60132 485.61823 483.24426 483.38675z" stroke="none" fill="#E6E6E6" fill-rule="nonzero" />
    <path transform="matrix(1 0 0 1 -220.66498 -142.33682)"  d="M472.77832 468.96506L431.16132 447.651C 427.08066 445.5611 425.7287 440.018 428.14792 435.29437L428.14792 435.29437L461.32867 370.50684C 463.7479 365.78317 469.03595 363.64078 473.11658 365.73065L473.11658 365.73065L523.3815 391.47366C 527.4621 393.56357 528.8137 399.1064 526.3945 403.83008L526.3945 403.83008L508.3689 439.02615C 497.5932 460.06647 490.95483 478.27408 472.77832 468.96506z" stroke="none" fill="#FFFFFF" fill-rule="nonzero" />
    <path transform="matrix(1 0 0 1 -220.66498 -142.33682)"  d="M493.3547 433.58463L456.49332 414.70615C 455.5617 414.04236 455.25772 412.79584 455.77917 411.77768C 456.30063 410.75952 457.48978 410.2777 458.57285 410.64572L458.57285 410.64572L495.43423 429.5242C 496.36584 430.188 496.66983 431.4345 496.14838 432.45267C 495.62692 433.47083 494.43777 433.95264 493.3547 433.58463z" stroke="none" fill="#1890FF" fill-rule="nonzero" />
    <path transform="matrix(1 0 0 1 -220.66498 -142.33682)"  d="M460.7968 427.03683L452.38467 422.72858C 451.45306 422.0647 451.1491 420.81815 451.67056 419.8C 452.19202 418.7818 453.3812 418.29996 454.46432 418.66794L454.46432 418.66794L462.87646 422.9762C 463.80807 423.64008 464.11203 424.88663 463.59058 425.9048C 463.06912 426.92297 461.87994 427.40482 460.7968 427.03683z" stroke="none" fill="#1890FF" fill-rule="nonzero" />
    <path transform="matrix(1 0 0 1 -220.66498 -142.33682)"  d="M471.5871 442.6897L448.276 430.751C 447.3444 430.08716 447.04044 428.8406 447.5619 427.82245C 448.08334 426.80426 449.27252 426.32242 450.35565 426.69037L450.35565 426.69037L473.66675 438.6291C 474.59836 439.29297 474.9023 440.53952 474.38086 441.55768C 473.8594 442.57587 472.67023 443.0577 471.5871 442.68973L471.5871 442.68973L471.5871 442.6897z" stroke="none" fill="#1890FF" fill-rule="nonzero" />
    <path transform="matrix(1 0 0 1 -220.66498 -142.33682)"  d="M507.94168 405.1027L471.0803 386.2242C 470.14868 385.56042 469.8447 384.3139 470.36615 383.29575C 470.8876 382.2776 472.07675 381.79578 473.15982 382.1638L473.15982 382.1638L510.0212 401.04227C 510.95282 401.70605 511.2568 402.95258 510.73535 403.97073C 510.2139 404.9889 509.02475 405.4707 507.94168 405.1027z" stroke="none" fill="#1890FF" fill-rule="nonzero" />
    <path transform="matrix(1 0 0 1 -220.66498 -142.33682)"  d="M475.38376 398.5549L466.97162 394.24664C 466.04 393.58276 465.73605 392.3362 466.2575 391.31805C 466.77896 390.29987 467.96814 389.81802 469.05127 390.186L469.05127 390.186L477.4634 394.49426C 478.39502 395.15814 478.69897 396.4047 478.17752 397.42285C 477.65607 398.44104 476.4669 398.92288 475.38376 398.5549z" stroke="none" fill="#1890FF" fill-rule="nonzero" />
    <path transform="matrix(1 0 0 1 -220.66498 -142.33682)"  d="M486.17407 414.20776L462.863 402.269C 461.9314 401.60516 461.62744 400.3586 462.1489 399.34045C 462.67035 398.32227 463.85953 397.84042 464.94266 398.20837L464.94266 398.20837L488.25375 410.1471C 489.18536 410.81097 489.48932 412.05753 488.96786 413.07568C 488.4464 414.09387 487.25723 414.5757 486.1741 414.20773L486.1741 414.20773L486.17407 414.20776z" stroke="none" fill="#1890FF" fill-rule="nonzero" />
    <path transform="matrix(1 0 0 1 -220.66498 -142.33682)"  d="M432.48538 415.49442L418.64722 363.97717L455.6266 356.97696L453.638 392.338L502.22577 442.36755C 509.3959 442.07446 515.4994 447.53607 516.0014 454.6946C 516.5035 461.85315 511.22217 468.11325 504.08133 468.82385C 496.94046 469.53442 490.52902 464.4379 489.6105 457.32077L489.6105 457.32077L432.48538 415.49442z" stroke="none" fill="#A0616A" fill-rule="nonzero" />
    <path transform="matrix(1 0 0 1 -220.66498 -142.33682)"  d="M414.86313 306.21558C 402.311 316.1249 418.4217 371.5531 418.4217 371.5531C 420.91605 368.81567 423.8146 409.2728 426.86346 407.89523C 435.5286 403.98004 451.41068 390.47906 457.5335 391.57953C 461.03506 392.2089 457.36652 364.81915 457.36652 364.81915C 457.36652 364.81915 456.69177 349.11447 455.4236 328.92554C 454.9101 317.31082 448.481 306.7693 438.3898 300.99588C 438.3898 300.99588 427.41528 296.3063 414.86313 306.21558z" stroke="none" fill="#3F3D56" fill-rule="nonzero" />
    <path transform="matrix(1 0 0 1 -220.66498 -142.33682)"  d="M623.71893 529.841L590.2927 514.0568C 588.8444 513.37665 587.78705 512.07104 587.4227 510.51306C 587.05566 508.98904 587.4065 507.38086 588.3749 506.14816C 598.0575 493.77335 604.70605 479.3021 607.78766 463.89453C 608.2678 461.46158 610.4002 459.70694 612.88007 459.70413C 629.92786 459.76215 642.66895 465.9869 650.74805 478.20334C 651.6102 479.48953 651.86206 481.09024 651.4364 482.57907C 646.75824 498.7029 639.6398 514.0157 630.3283 527.9856C 628.8989 530.1696 626.07605 530.96204 623.71893 529.841z" stroke="none" fill="#E6E6E6" fill-rule="nonzero" />
    <path transform="matrix(1 0 0 1 -220.66498 -142.33682)"  d="M633.552 507.70288L607.99384 495.6341C 607.1373 495.22964 606.56165 494.39896 606.48364 493.45493C 606.40564 492.51093 606.8372 491.59702 607.6158 491.05746C 608.3943 490.5179 609.40155 490.4347 610.25806 490.83914L610.25806 490.83914L635.81616 502.90793C 636.6727 503.3124 637.2484 504.1431 637.3264 505.08713C 637.4044 506.03113 636.97284 506.94504 636.1943 507.4846C 635.4158 508.02414 634.4085 508.10736 633.55194 507.70288L633.55194 507.70288L633.552 507.70288z" stroke="none" fill="#FFFFFF" fill-rule="nonzero" />
    <path transform="matrix(1 0 0 1 -220.66498 -142.33682)"  d="M637.52234 499.29474L611.96423 487.226C 610.64014 486.60077 610.0736 485.02054 610.69885 483.69644C 611.3241 482.37234 612.90436 481.80582 614.22845 482.43106L614.22845 482.43106L639.78656 494.49982C 641.11066 495.1251 641.6772 496.70535 641.05194 498.02945C 640.4267 499.35355 638.84644 499.9201 637.52234 499.29483L637.52234 499.29483L637.52234 499.29474z" stroke="none" fill="#FFFFFF" fill-rule="nonzero" />
    <path transform="matrix(1 0 0 1 -220.66498 -142.33682)"  d="M603.37134 235.3519L600.99194 235.6125C 590.38446 193.92815 569.8238 165.04965 541.53046 152.09851C 505.5627 135.6353 461.08716 146.69064 416.2964 183.22852C 371.27798 219.95291 331.42484 277.96152 304.07922 346.57135L304.07922 346.57135L301.77078 345.51492C 329.23648 276.60544 369.2942 218.31653 414.56488 181.38799C 460.0626 144.27277 505.44586 133.13635 542.3545 150.03062C 571.4592 163.3529 592.55817 192.85661 603.37134 235.3519z" stroke="none" fill="#F2F2F2" fill-rule="nonzero" />
    <path transform="matrix(1 0 0 1 -220.66498 -142.33682)"  d="M340.897 289.6404C 334.67535 302.747 328.75757 316.32553 323.30783 329.9984C 291.94733 408.68063 276.05515 489.03607 277.35382 562.3819L277.35382 562.3819L274.90283 562.12036C 273.60284 488.5018 289.54074 407.86957 320.99942 328.94202C 326.46478 315.23056 332.3994 301.61368 338.63898 288.4701L338.63898 288.4701L340.897 289.6404z" stroke="none" fill="#F2F2F2" fill-rule="nonzero" />
    <path transform="matrix(1 0 0 1 -220.66498 -142.33682)"  d="M339.72058 343.70416C 333.49893 356.81076 327.58115 370.38928 322.1314 384.06216C 290.77087 462.7444 274.87872 543.09985 276.1774 616.4456L276.1774 616.4456L273.7264 616.1841C 272.42642 542.56555 288.36432 461.9333 319.823 383.0057C 325.28836 369.29428 331.223 355.6774 337.46255 342.53378L337.46255 342.53378L339.72058 343.70416z" stroke="none" fill="#F2F2F2" fill-rule="nonzero" />
    <path transform="matrix(0.553915 -0.83257324 0.83257324 0.553915 -400.121 238.16505)"  d="M256.4998 357.71936C 256.4998 352.089 260.46506 347.5247 265.35648 347.5247C 270.2479 347.5247 274.21317 352.089 274.21317 357.71936C 274.21317 363.34973 270.2479 367.91403 265.35648 367.91403C 260.46506 367.91403 256.4998 363.34973 256.4998 357.71936" stroke="none" fill="#CCCCCC" fill-rule="nonzero" />
    <path transform="matrix(0.553915 -0.83257324 0.83257324 0.553915 -265.20166 784.11676)"  d="M833.4418 504.78842C 833.4418 499.15808 837.40704 494.59375 842.29846 494.59375C 847.1899 494.59375 851.15515 499.15808 851.15515 504.78842C 851.15515 510.41876 847.1899 514.9831 842.29846 514.9831C 837.40704 514.9831 833.4418 510.41876 833.4418 504.78842" stroke="none" fill="#CCCCCC" fill-rule="nonzero" />
</g>
</svg>