<?xml version="1.0" standalone="no"?>
<!DOCTYPE svg PUBLIC "-//W3C//DTD SVG 1.0//EN" "http://www.w3.org/TR/2001/REC-SVG-20010904/DTD/svg10.dtd">
<svg xmlns="http://www.w3.org/2000/svg" xmlns:xlink="http://www.w3.org/1999/xlink" id="body_1" width="1218" height="987">

<g transform="matrix(0.9137284 0 0 0.99898785 0 0)">
	<g transform="matrix(1 0 0 1 0 0)">
		<g transform="matrix(1.5198627 0 0 1.5198627 0.41920528 -0)">
            <path transform="matrix(1 0 0 1 -161.7494 -124.97064)"  d="M428.43185 743.23474C 414.0122 762.5457 384.07986 764.57825 384.07986 764.57825C 384.07986 764.57825 377.52634 735.30145 391.94598 715.9905C 406.36563 696.6795 436.29797 694.647 436.29797 694.647C 436.29797 694.647 442.8515 723.9237 428.43185 743.23474z" stroke="none" fill="#E6E6E6" fill-rule="nonzero" />
            <path transform="matrix(1 0 0 1 -161.7494 -124.97064)"  d="M354.97513 750.49426C 364.49023 763.237 384.2417 764.57825 384.2417 764.57825C 384.2417 764.57825 388.56616 745.2594 379.0511 732.5166C 369.536 719.7738 349.78452 718.4326 349.78452 718.4326C 349.78452 718.4326 345.46 737.7515 354.97513 750.49426z" stroke="none" fill="#E6E6E6" fill-rule="nonzero" />
            <path d="M257.738 640.769L0 640.769L0 638.663L258.12 638.663L257.738 640.769" stroke="none" fill="#3F3D56" fill-rule="nonzero" />
            <path d="M704.8396 59.70839L876.5012 59.70839L876.5012 315.9569L704.8396 315.9569L704.8396 59.70839z" stroke="none" fill="#E6E6E6" fill-rule="nonzero" />
            <path d="M714.006 73.39156L867.33484 73.39156L867.33484 302.2737L714.006 302.2737L714.006 73.39156z" stroke="none" fill="#FFFFFF" fill-rule="nonzero" />
            <path d="M814.329 236.25516L821.7505 236.25516L821.7505 261.94492L814.329 261.94492L814.329 236.25516z" stroke="none" fill="#3F3D56" fill-rule="nonzero" />
            <path d="M826.808 258.178L808.335 235.97L772.369 235.97L750.39 257.378L750.834 257.663L750.675 257.663L750.675 302.192L826.603 302.192L826.603 257.663L826.808 258.178" stroke="none" fill="#3F3D56" fill-rule="nonzero" />
            <path d="M808.62 235.684L786.07 262.122L786.07 302.192L826.603 302.192L826.603 257.092L808.62 235.684" stroke="none" fill="#1890FF" fill-rule="nonzero" />
            <path d="M802.34045 280.03262L810.6183 280.03262L810.6183 287.34927L802.34045 287.34927L802.34045 280.03262z" stroke="none" fill="#3F3D56" fill-rule="nonzero" />
            <path d="M802.34045 267.36832L810.6183 267.36832L810.6183 274.56894L802.34045 274.56894L802.34045 267.36832z" stroke="none" fill="#3F3D56" fill-rule="nonzero" />
            <path d="M802.34045 280.03262L810.6183 280.03262L810.6183 287.34927L802.34045 287.34927L802.34045 280.03262z" stroke="none" fill="#FFFFFF" fill-rule="nonzero" />
            <path d="M802.34045 267.36832L810.6183 267.36832L810.6183 274.56894L802.34045 274.56894L802.34045 267.36832z" stroke="none" fill="#FFFFFF" fill-rule="nonzero" />
            <path transform="matrix(1 0 0 1 -161.7494 -124.97064)"  d="M942.19836 425.8572C 942.19836 425.8572 942.37585 422.13882 946.01373 422.57104" stroke="none" fill="#E6E6E6" fill-rule="nonzero" />
            <path d="M781.2418 295.52734C 781.2418 295.02457 781.0641 294.5954 780.70856 294.2399C 780.353 293.8844 779.9238 293.7066 779.4211 293.7066C 778.91833 293.7066 778.4892 293.8844 778.1336 294.2399C 777.77814 294.5954 777.6004 295.02457 777.60034 295.52734C 777.6004 296.03015 777.77814 296.4593 778.1336 296.8148C 778.4892 297.17032 778.91833 297.34808 779.4211 297.34808C 779.9238 297.34808 780.353 297.17032 780.70856 296.8148C 781.0641 296.4593 781.2418 296.03015 781.2418 295.52734" stroke="none" fill="#1890FF" fill-rule="nonzero" />
            <path d="M779.1248 298.59335L779.6388 298.59335L779.6388 302.19098L779.1248 302.19098L779.1248 298.59335z" stroke="none" fill="#E6E6E6" fill-rule="nonzero" />
            <path d="M469.73782 59.70839L641.3994 59.70839L641.3994 315.9569L469.73782 315.9569L469.73782 59.70839z" stroke="none" fill="#E6E6E6" fill-rule="nonzero" />
            <path d="M478.9042 73.39156L632.23303 73.39156L632.23303 302.2737L478.9042 302.2737L478.9042 73.39156z" stroke="none" fill="#FFFFFF" fill-rule="nonzero" />
            <path transform="matrix(1 0 0 1 -161.7494 -124.97064)"  d="M920.9455 283.5887L925.36365 280.05502C 921.9314 279.67633 920.5211 281.54825 919.9439 283.02985C 918.1023 282.41885 916.0959 282.54276 914.34344 283.37564L914.34344 283.37564L923.1834 286.58484C 922.7374 285.3937 921.9611 284.35437 920.9455 283.5887z" stroke="none" fill="#3F3D56" fill-rule="nonzero" />
            <path transform="matrix(1 0 0 1 -161.7494 -124.97064)"  d="M730.1681 276.6693L734.58624 273.13562C 731.154 272.75696 729.7437 274.62885 729.16656 276.11047C 727.32495 275.49942 725.31854 275.6233 723.56604 276.45624L723.56604 276.45624L732.406 279.66544C 731.96 278.47427 731.1837 277.43494 730.1681 276.6693z" stroke="none" fill="#3F3D56" fill-rule="nonzero" />
            <path transform="matrix(1 0 0 1 -161.7494 -124.97064)"  d="M981.0763 250.20888L985.49445 246.67519C 982.0622 246.29651 980.6519 248.16841 980.0747 249.65001C 978.2331 249.03897 976.2266 249.16286 974.4742 249.99579L974.4742 249.99579L983.31415 253.205C 982.86816 252.01385 982.09186 250.97453 981.0763 250.20888z" stroke="none" fill="#3F3D56" fill-rule="nonzero" />
            <path d="M584.8248 210.88222L592.24634 210.88222L592.24634 236.57199L584.8248 236.57199L584.8248 210.88222z" stroke="none" fill="#3F3D56" fill-rule="nonzero" />
            <path d="M584.8248 208.31323L592.24634 208.31323L592.24634 234.003L584.8248 234.003L584.8248 208.31323z" stroke="none" fill="#3F3D56" fill-rule="nonzero" />
            <path d="M603.461 241.079L578.129 210.991L528.425 210.991L498.051 240.577L498.664 240.971L498.445 240.971L498.445 302.509L603.375 302.509L603.375 240.971L603.461 241.079" stroke="none" fill="#3F3D56" fill-rule="nonzero" />
            <path d="M578.523 210.597L547.36 247.133L547.36 302.509L603.375 302.509L603.375 240.182L578.523 210.597" stroke="none" fill="#1890FF" fill-rule="nonzero" />
            <path d="M561.9486 270.92172L573.38837 270.92172L573.38837 281.99646L561.9486 281.99646L561.9486 270.92172z" stroke="none" fill="#3F3D56" fill-rule="nonzero" />
            <path d="M561.9486 254.38332L573.38837 254.38332L573.38837 265.45804L561.9486 265.45804L561.9486 254.38332z" stroke="none" fill="#3F3D56" fill-rule="nonzero" />
            <path d="M561.9486 270.92172L573.38837 270.92172L573.38837 281.99646L561.9486 281.99646L561.9486 270.92172z" stroke="none" fill="#FFFFFF" fill-rule="nonzero" />
            <path d="M561.9486 254.38332L573.38837 254.38332L573.38837 265.45804L561.9486 265.45804L561.9486 254.38332z" stroke="none" fill="#FFFFFF" fill-rule="nonzero" />
            <path d="M578.68115 270.92172L590.1209 270.92172L590.1209 281.99646L578.68115 281.99646L578.68115 270.92172z" stroke="none" fill="#3F3D56" fill-rule="nonzero" />
            <path d="M578.68115 254.38332L590.1209 254.38332L590.1209 265.45804L578.68115 265.45804L578.68115 254.38332z" stroke="none" fill="#3F3D56" fill-rule="nonzero" />
            <path d="M578.68115 270.92172L590.1209 270.92172L590.1209 281.99646L578.68115 281.99646L578.68115 270.92172z" stroke="none" fill="#FFFFFF" fill-rule="nonzero" />
            <path d="M578.68115 254.38332L590.1209 254.38332L590.1209 265.45804L578.68115 265.45804L578.68115 254.38332z" stroke="none" fill="#FFFFFF" fill-rule="nonzero" />
            <path d="M437.4721 44.03839C 437.4721 31.877527 433.1726 21.497578 424.57355 12.898546C 415.97455 4.2995157 405.5946 0 393.43372 0C 381.27286 0 370.8929 4.2995157 362.29388 12.898546C 353.69485 21.497578 349.39532 31.877527 349.39532 44.03839C 349.39532 56.199257 353.69485 66.57921 362.29388 75.17824C 370.8929 83.77727 381.27286 88.07678 393.43372 88.07678C 405.5946 88.07678 415.97455 83.77727 424.57355 75.17824C 433.1726 66.57921 437.4721 56.199257 437.4721 44.03839" stroke="none" fill="#FF6584" fill-rule="nonzero" />
            <path d="M234.63602 59.70839L406.29764 59.70839L406.29764 315.9569L234.63602 315.9569L234.63602 59.70839z" stroke="none" fill="#E6E6E6" fill-rule="nonzero" />
            <path d="M243.80241 73.39156L397.13123 73.39156L397.13123 302.2737L243.80241 302.2737L243.80241 73.39156z" stroke="none" fill="#FFFFFF" fill-rule="nonzero" />
            <path d="M385.454 227.104L354.54 190.288L293.762 190.288L256.619 226.466L257.37 226.948L257.102 226.948L257.102 302.197L385.411 302.197L385.411 226.948L385.454 227.104" stroke="none" fill="#3F3D56" fill-rule="nonzero" />
            <path transform="matrix(1 0 0 1 -161.7494 -124.97064)"  d="M509.6006 273.23746L513.7724 269.90082C 510.53152 269.54324 509.1999 271.31082 508.6549 272.7098C 506.91602 272.13284 505.02145 272.24982 503.3667 273.0363L503.3667 273.0363L511.71368 276.06653C 511.2926 274.94177 510.5596 273.9604 509.6006 273.23746z" stroke="none" fill="#3F3D56" fill-rule="nonzero" />
            <path d="M359.8471 186.84087L366.85474 186.84087L366.85474 211.09808L359.8471 211.09808L359.8471 186.84087z" stroke="none" fill="#3F3D56" fill-rule="nonzero" />
            <path d="M355.022 189.806L316.915 234.482L316.915 302.197L385.411 302.197L385.411 225.983L355.022 189.806" stroke="none" fill="#1890FF" fill-rule="nonzero" />
            <path transform="matrix(1 0 0 1 -161.7494 -124.97064)"  d="M447.8294 425.9352C 447.8294 425.9352 447.99698 422.42422 451.43198 422.8323" stroke="none" fill="#E6E6E6" fill-rule="nonzero" />
            <path d="M286.82864 295.9042C 286.82864 295.42944 286.6608 295.02423 286.3251 294.68854C 285.9894 294.35284 285.5842 294.185 285.10944 294.185C 284.6347 294.185 284.22946 294.35284 283.89377 294.68854C 283.55807 295.02423 283.39023 295.42944 283.39023 295.9042C 283.39023 296.37897 283.55807 296.78418 283.89377 297.11987C 284.22946 297.45557 284.6347 297.6234 285.10944 297.6234C 285.5842 297.6234 285.9894 297.45557 286.3251 297.11987C 286.6608 296.78418 286.82864 296.37897 286.82864 295.9042" stroke="none" fill="#1890FF" fill-rule="nonzero" />
            <path d="M284.8297 298.79922L285.315 298.79922L285.315 302.19626L284.8297 302.19626L284.8297 298.79922z" stroke="none" fill="#E6E6E6" fill-rule="nonzero" />
            <path transform="matrix(1 0 0 1 -161.7494 -124.97064)"  d="M463.19232 425.9352C 463.19232 425.9352 463.3599 422.42422 466.7949 422.8323" stroke="none" fill="#E6E6E6" fill-rule="nonzero" />
            <path d="M302.19156 295.9042C 302.19156 295.42944 302.0237 295.02423 301.68802 294.68854C 301.35233 294.35284 300.9471 294.185 300.47235 294.185C 299.99762 294.185 299.59238 294.35284 299.25668 294.68854C 298.921 295.02423 298.75314 295.42944 298.75314 295.9042C 298.75314 296.37897 298.921 296.78418 299.25668 297.11987C 299.59238 297.45557 299.99762 297.6234 300.47235 297.6234C 300.9471 297.6234 301.35233 297.45557 301.68802 297.11987C 302.0237 296.78418 302.19156 296.37897 302.19156 295.9042" stroke="none" fill="#1890FF" fill-rule="nonzero" />
            <path d="M300.1926 298.79922L300.6779 298.79922L300.6779 302.19626L300.1926 302.19626L300.1926 298.79922z" stroke="none" fill="#E6E6E6" fill-rule="nonzero" />
            <path transform="matrix(1 0 0 1 -161.7494 -124.97064)"  d="M426.8065 425.9352C 426.8065 425.9352 426.97406 422.42422 430.40906 422.8323" stroke="none" fill="#E6E6E6" fill-rule="nonzero" />
            <path d="M265.80573 295.9042C 265.80573 295.42944 265.63788 295.02423 265.3022 294.68854C 264.9665 294.35284 264.56128 294.185 264.08652 294.185C 263.61176 294.185 263.20654 294.35284 262.87085 294.68854C 262.53516 295.02423 262.3673 295.42944 262.3673 295.9042C 262.3673 296.37897 262.53516 296.78418 262.87085 297.11987C 263.20654 297.45557 263.61176 297.6234 264.08652 297.6234C 264.56128 297.6234 264.9665 297.45557 265.3022 297.11987C 265.63788 296.78418 265.80573 296.37897 265.80573 295.9042" stroke="none" fill="#1890FF" fill-rule="nonzero" />
            <path d="M263.80676 298.79922L264.29205 298.79922L264.29205 302.19626L263.80676 302.19626L263.80676 298.79922z" stroke="none" fill="#E6E6E6" fill-rule="nonzero" />
            <path d="M325.7215 243.34851L339.71017 243.34851L339.71017 257.6519L325.7215 257.6519L325.7215 243.34851z" stroke="none" fill="#3F3D56" fill-rule="nonzero" />
            <path d="M325.7215 262.81088L339.71017 262.81088L339.71017 277.11426L325.7215 277.11426L325.7215 262.81088z" stroke="none" fill="#3F3D56" fill-rule="nonzero" />
            <path d="M325.7215 243.34851L339.71017 243.34851L339.71017 257.6519L325.7215 257.6519L325.7215 243.34851z" stroke="none" fill="#FFFFFF" fill-rule="nonzero" />
            <path d="M325.7215 262.81088L339.71017 262.81088L339.71017 277.11426L325.7215 277.11426L325.7215 262.81088z" stroke="none" fill="#FFFFFF" fill-rule="nonzero" />
            <path d="M345.0678 243.34851L359.0565 243.34851L359.0565 257.6519L345.0678 257.6519L345.0678 243.34851z" stroke="none" fill="#3F3D56" fill-rule="nonzero" />
            <path d="M345.0678 262.81088L359.0565 262.81088L359.0565 277.11426L345.0678 277.11426L345.0678 262.81088z" stroke="none" fill="#3F3D56" fill-rule="nonzero" />
            <path d="M345.0678 243.34851L359.0565 243.34851L359.0565 257.6519L345.0678 257.6519L345.0678 243.34851z" stroke="none" fill="#FFFFFF" fill-rule="nonzero" />
            <path d="M345.0678 262.81088L359.0565 262.81088L359.0565 277.11426L345.0678 277.11426L345.0678 262.81088z" stroke="none" fill="#FFFFFF" fill-rule="nonzero" />
            <path d="M364.41412 243.34851L378.4028 243.34851L378.4028 257.6519L364.41412 257.6519L364.41412 243.34851z" stroke="none" fill="#3F3D56" fill-rule="nonzero" />
            <path d="M364.41412 262.81088L378.4028 262.81088L378.4028 277.11426L364.41412 277.11426L364.41412 262.81088z" stroke="none" fill="#3F3D56" fill-rule="nonzero" />
            <path d="M364.41412 243.34851L378.4028 243.34851L378.4028 257.6519L364.41412 257.6519L364.41412 243.34851z" stroke="none" fill="#FFFFFF" fill-rule="nonzero" />
            <path d="M364.41412 262.81088L378.4028 262.81088L378.4028 277.11426L364.41412 277.11426L364.41412 262.81088z" stroke="none" fill="#FFFFFF" fill-rule="nonzero" />
            <path transform="matrix(1 0 0 1 -161.7494 -124.97064)"  d="M1036.7847 442.23148L396.64948 442.23148C 396.64948 442.23148 526.619 410.93423 718.0488 411.2893C 719.1231 411.2893 720.1974 411.2924 721.2716 411.29852C 722.5887 411.317 723.90576 411.34006 725.23016 411.3631C 725.75995 411.3723 726.28235 411.38153 726.80475 411.39078C 728.0188 411.41382 729.24023 411.43842 730.46893 411.46454C 731.24896 411.483 732.0435 411.50607 732.8308 411.53372C 736.5466 411.63977 740.277 411.76273 744.02216 411.90262C 744.8904 411.9349 745.7586 411.9672 746.63416 411.99948C 747.8335 412.04095 749.04016 412.09167 750.23956 412.13782C 751.82886 412.2024 753.41815 412.2685 755.00745 412.33612C 757.075 412.42374 759.1352 412.51596 761.20276 412.6128C 765.5292 412.8111 769.8801 413.02936 774.2556 413.2676C 775.64624 413.35062 777.04425 413.43826 778.4422 413.52585C 780.5834 413.655 782.72943 413.7918 784.8803 413.93628C 786.2489 414.0285 787.6248 414.12073 788.9934 414.21298C 790.6489 414.32364 792.29706 414.439 793.95264 414.55884C 795.60077 414.6787 797.2637 414.7986 798.9192 414.92313C 800.5821 415.04764 802.245 415.1737 803.90784 415.30127C 805.57806 415.43036 807.24097 415.5595 808.9112 415.69785C 810.5593 415.82697 812.2075 415.9653 813.86304 416.10364C 820.912 416.68933 828.0123 417.3272 835.1641 418.01736C 836.53265 418.14645 837.91595 418.2802 839.2919 418.41855C 840.712 418.5569 842.13696 418.69986 843.5668 418.8474C 845.11926 419.0134 846.6865 419.18405 848.2464 419.35928L848.2464 419.35928L848.73206 419.4146C 850.45374 419.60367 852.1829 419.80194 853.9046 420.00024C 855.6337 420.19855 857.3702 420.40143 859.09924 420.60434C 860.8358 420.80725 862.57227 421.01477 864.30865 421.2269C 866.0525 421.439 867.78894 421.65112 869.5328 421.8679C 870.894 422.0385 872.24786 422.20914 873.609 422.37973C 874.2859 422.46735 874.9629 422.55035 875.6398 422.63797C 877.0967 422.82703 878.5584 423.01764 880.025 423.20978C 880.2237 423.23746 880.41504 423.2651 880.61365 423.28815C 883.3361 423.6571 886.061 424.03217 888.7882 424.41333C 889.1561 424.46405 889.5314 424.51938 889.9066 424.57013C 891.3341 424.76843 892.76154 424.97134 894.1889 425.17883C 895.61633 425.38632 897.04376 425.58923 898.4786 425.80136C 898.5374 425.80597 898.5963 425.8152 898.65515 425.82443C 900.6786 426.11957 902.69464 426.41928 904.7254 426.72827C 905.73346 426.87585 906.74146 427.028 907.74945 427.18478C 909.13275 427.3923 910.50867 427.6044 911.89197 427.82117C 912.797 427.96417 913.702 428.10706 914.6144 428.25003C 915.28394 428.3469 915.9535 428.45294 916.62305 428.5636C 918.03577 428.7804 919.4509 429.00482 920.8685 429.23688C 920.90564 429.24075 920.9425 429.24692 920.9789 429.25534C 921.2953 429.30606 921.6043 429.35678 921.92065 429.40753C 922.8845 429.5643 923.8484 429.7257 924.81964 429.88712C 925.8129 430.0531 926.81366 430.21912 927.81433 430.38974C 928.68994 430.53732 929.5729 430.68488 930.4485 430.83704C 930.47327 430.8374 930.4979 430.84048 930.52203 430.84628C 930.6471 430.86472 930.7722 430.88776 930.8973 430.91083C 931.91266 431.08145 932.92804 431.2521 933.9434 431.43192C 934.9588 431.60715 935.9742 431.78238 936.99695 431.96222C 937.1 431.97604 937.20294 431.9945 937.306 432.01294C 938.0933 432.14673 938.8806 432.28503 939.6679 432.42795C 939.6679 432.42795 939.6679 432.42334 939.6753 432.42795C 940.1241 432.5017 940.57294 432.58472 941.0218 432.66312C 942.2212 432.8752 943.42053 433.08887 944.6198 433.30408C 945.39246 433.44244 946.17236 433.58078 946.94495 433.72372C 949.1008 434.11572 951.2616 434.51074 953.42725 434.90884C 955.59045 435.31003 957.76105 435.71585 959.92426 436.12622C 961.22656 436.37064 962.52155 436.61963 963.8239 436.8733C 965.04535 437.10388 966.2667 437.33905 967.4881 437.5788C 1033.1278 441.5121 1034.96 441.86716 1036.7847 442.23148z" stroke="none" fill="#E6E6E6" fill-rule="nonzero" />
            <path transform="matrix(1 0 0 1 -161.7494 -124.97064)"  d="" stroke="#3F3D56" stroke-width="2" fill="none" />
            <path transform="matrix(1 0 0 1 -161.7494 -124.97064)"  d="M1036.5889 443.2119C 1034.9658 442.88818 1033.3369 442.5713 1031.7119 442.25537L1031.7119 442.25537L1031.1113 442.13867C 1029.8916 441.89844 1028.6722 441.66376 1027.4531 441.43457C 1026.1475 441.1797 1024.8545 440.93115 1023.5547 440.6875C 1021.3906 440.27686 1019.2256 439.8711 1017.0596 439.4702L1017.0596 439.4702L1016.2578 439.3247C 1015.59766 439.20264 1014.9336 439.08447 1014.2744 438.9663L1014.2744 438.9663L1013.93555 438.90576C 1012.8447 438.7085 1011.7549 438.51416 1010.666 438.32275L1010.666 438.32275L1010.1592 438.2334L1010.1592 438.24365L1008.98047 438.0293L1008.916 438.01758L1008.80273 437.99707C 1008.0791 437.8662 1007.35486 437.73926 1006.6299 437.6162C 1006.52637 437.59766 1006.4424 437.58203 1006.3574 437.5708L1006.3574 437.5708L1003.2656 437.03467C 1002.2969 436.8628 1001.33203 436.70065 1000.36816 436.53857L1000.36816 436.53857L1000.22266 436.51416C 1000.0947 436.49072 999.98047 436.46924 999.8672 436.45264C 998.9971 436.30518 998.21875 436.17432 997.44434 436.04443L997.44434 436.04443L990.19824 434.84082C 988.8819 434.62402 987.5658 434.41064 986.25 434.20068C 985.5752 434.08936 984.9121 433.98438 984.25 433.88867L984.25 433.88867L981.5137 433.45752C 980.1338 433.2412 978.75977 433.0298 977.3789 432.82227C 976.36914 432.66553 975.36426 432.51367 974.3584 432.3662C 972.3242 432.05664 970.3096 431.75732 968.2881 431.4629L968.2881 431.4629L968.11035 431.43945C 967.1904 431.30322 966.27313 431.16977 965.3584 431.03906L965.3584 431.03906L963.82324 430.81738C 962.39746 430.6099 960.97205 430.40726 959.5469 430.20947L959.5469 430.20947L958.4297 430.05273C 955.69824 429.66995 952.9743 429.29495 950.2578 428.92773C 950.10254 428.91016 949.93555 428.88675 949.7637 428.8628L949.7637 428.8628L933.9258 426.8125C 932.1836 426.5962 930.44727 426.38428 928.7041 426.17188C 926.9698 425.95996 925.2351 425.75262 923.5 425.5498C 921.7715 425.34717 920.03516 425.14404 918.3076 424.9463C 916.5879 424.74805 914.8594 424.5498 913.1396 424.3613L913.1396 424.3613L912.64935 424.30515C 911.0937 424.13083 909.5273 423.95993 907.9775 423.7939C 906.3662 423.6172 904.76074 423.44595 903.1611 423.28024L903.1611 423.28024L902.8291 423.24557C 900.8282 423.0337 898.8357 422.82794 896.85156 422.6284C 895.4756 422.4902 894.09375 422.3569 892.72754 422.228C 885.7285 421.55075 878.5664 420.90768 871.4365 420.3154C 869.751 420.1743 868.1201 420.03757 866.49023 419.90964C 864.8164 419.77097 863.15625 419.64255 861.4873 419.51315C 859.8262 419.38428 858.1644 419.2583 856.50195 419.13522C 855.01855 419.0239 853.5293 418.916 852.0508 418.80856L852.0508 418.80856L851.5371 418.77145C 849.8838 418.65134 848.2373 418.5361 846.584 418.42624L846.584 418.42624L842.4697 418.1489C 840.3242 418.00632 838.18036 417.8696 836.0381 417.73874L836.0381 417.73874L835.6651 417.7153C 834.3917 417.6357 833.12085 417.55743 831.8526 417.48044C 829.7862 417.38376 827.7276 417.29144 825.6612 417.20358C 824.2188 417.1411 822.7771 417.08105 821.336 417.0234L821.336 417.0234L819.6788 416.95798C 818.88385 416.92624 818.08795 416.895 817.29596 416.86765L817.29596 416.86765L814.6807 416.77097C 810.93854 416.63232 807.2113 416.50928 803.4991 416.40182C 802.70807 416.37448 801.918 416.35104 801.14166 416.33298C 799.085 416.27292 797.0479 416.21725 795.0187 416.167C 792.70325 416.11182 790.39435 416.05957 788.0919 416.01025L788.0919 416.01025L782.8556 415.90918C 781.53235 415.8858 780.21436 415.86414 778.9015 415.84424C 775.8468 415.79395 772.8175 415.75684 769.79504 415.7246C 765.9337 415.6831 762.0952 415.65692 758.2794 415.646L758.2794 415.646L757.9864 415.64453C 757.01086 415.64066 756.0356 415.63806 755.0606 415.63672C 753.9991 415.6347 752.9278 415.6338 751.8692 415.6338C 564.4615 415.6338 435.18658 446.24023 433.89557 446.55127L433.89557 446.55127L433.4273 444.60693C 434.72076 444.2954 564.24664 413.6338 751.8692 413.6338C 752.9405 413.6338 753.98737 413.6348 755.06256 413.63672C 756.0382 413.63672 757.0154 413.6395 757.9942 413.64502L757.9942 413.64502L758.28723 413.64603C 762.10754 413.66022 765.9507 413.6864 769.8165 413.72464C 772.8429 413.75687 775.8761 413.79398 778.93176 413.84427C 780.2472 413.86282 781.5669 413.88446 782.89075 413.9092L782.89075 413.9092L788.1349 414.01028C 790.43665 414.0567 792.74756 414.10925 795.0675 414.168C 795.8458 414.18607 796.6437 414.2095 797.43567 414.23685C 801.1466 414.3428 804.87744 414.46585 808.62805 414.606L808.62805 414.606L811.24036 414.70267C 812.0334 414.7305 812.8331 414.76175 813.631 414.7935L813.631 414.7935L815.29114 414.8594C 816.7345 414.918 818.1772 414.97806 819.61926 415.03958C 821.6886 415.12747 823.74915 415.21976 825.8185 415.31644C 830.1476 415.51468 834.50146 415.7331 838.88 415.9717L838.88 415.9717L839.2511 415.99515C 841.3927 416.12457 843.54016 416.26144 845.6935 416.4058L845.6935 416.4058L849.80774 416.68314C 851.464 416.7935 853.1144 416.90872 854.7716 417.02884L854.7716 417.02884L855.2853 417.06644C 856.76575 417.17386 858.25696 417.28177 859.74133 417.3936C 861.4044 417.5181 863.0679 417.64407 864.73157 417.7715C 866.4044 417.9009 868.0685 418.0303 869.74036 418.16852C 871.37024 418.29645 873.0054 418.43057 874.6456 418.57086C 881.8312 419.16754 889.0021 419.81207 896.00793 420.48932C 897.3751 420.61823 898.76086 420.7525 900.1388 420.8907C 901.55774 421.02936 902.98645 421.17242 904.41614 421.32037C 906.4015 421.51862 908.3966 421.72452 910.4015 421.93805L910.4015 421.93805L910.73254 421.9732C 912.33704 422.1417 913.9448 422.31308 915.5558 422.48737C 917.10657 422.65335 918.6749 422.82428 920.2374 422.99957L920.2374 422.99957L920.72473 423.05524C 922.4435 423.24423 924.1749 423.44244 925.89856 423.6407C 927.6271 423.83942 929.3644 424.04254 931.09485 424.24518C 932.8331 424.44833 934.5711 424.656 936.3087 424.86816C 938.05383 425.08057 939.79016 425.29248 941.5353 425.50977L941.5353 425.50977L957.4044 427.56396C 957.5597 427.58545 957.71106 427.60696 957.8683 427.62497C 960.6124 427.99655 963.33606 428.3701 966.0675 428.7534L966.0675 428.7534L967.1808 428.90915C 968.61444 429.1084 970.0451 429.31183 971.4728 429.5195L971.4728 429.5195L973.006 429.74118C 973.924 429.87354 974.84393 430.00732 975.76575 430.14255C 975.79016 430.15036 975.86633 430.15378 975.9513 430.16696C 977.96497 430.46045 979.98645 430.76138 982.01575 431.0698C 983.3956 431.2768 984.77356 431.48923 986.1593 431.7065L986.1593 431.7065L988.88196 432.1357C 989.546 432.2314 990.2228 432.33835 990.89954 432.45065C 992.3029 432.66602 993.717 432.8903 995.1417 433.1235C 995.2059 433.13144 995.2695 433.1432 995.33215 433.15866L995.33215 433.15866L1002.3956 434.3281C 1003.14465 434.4541 1003.8976 434.58102 1004.6456 434.71042L1004.6456 434.71042L1004.8312 434.73972C 1004.9162 434.75095 1005.0519 434.77536 1005.1886 434.80072L1005.1886 434.80072L1005.3185 434.8222C 1006.2892 434.98578 1007.2589 435.14886 1008.2296 435.32074L1008.2296 435.32074L1011.2814 435.851C 1011.35364 435.8598 1011.4679 435.87982 1011.5831 435.90033C 1012.258 436.01508 1012.9315 436.13293 1013.60364 436.25385L1013.60364 436.25385L1013.8097 436.1396L1014.1456 436.34808C 1014.3771 436.38715 1014.60754 436.42816 1014.839 436.46918L1014.839 436.46918L1015.6349 436.6098C 1016.72577 436.80316 1017.8169 436.9978 1018.9083 437.19382L1018.9083 437.19382L1019.2462 437.25388C 1019.9093 437.37253 1020.5763 437.49167 1021.2374 437.61374L1021.2374 437.61374L1022.03625 437.75873C 1023.9279 438.103 1025.8228 438.44965 1027.7208 438.79874C 1029.8849 439.2006 1032.0577 439.60635 1034.2218 440.0175C 1035.5236 440.26163 1036.8224 440.51114 1038.1261 440.76547C 1039.3439 440.99496 1040.5685 441.2308 1041.7921 441.47104L1041.7921 441.47104L1042.3898 441.58774C 1044.0177 441.90414 1045.6505 442.22153 1047.2755 442.54623L1047.2755 442.54623L1036.5889 443.2119z" stroke="none" fill="#3F3D56" fill-rule="nonzero" />
            <path d="M750.5827 91.97361C 750.58276 71.1537 743.2218 53.382797 728.4998 38.6609C 713.77795 23.939 696.0071 16.578049 675.18713 16.578049C 654.36725 16.578049 636.5964 23.939 621.87445 38.6609C 607.1525 53.382797 599.79156 71.1537 599.79156 91.97361C 599.79156 112.79352 607.1525 130.56442 621.87445 145.28632C 636.5964 160.00822 654.36725 167.36917 675.18713 167.36917C 696.0071 167.36917 713.77795 160.00822 728.4998 145.28632C 743.2218 130.56442 750.58276 112.79352 750.5827 91.97361" stroke="none" fill="#1890FF" fill-rule="nonzero" />
            <path transform="matrix(1 0 0 1 -161.7494 -124.97064)"  d="M893.02045 166.58594C 907.5459 200.56349 895.3077 240.06107 864.1156 259.87314C 832.9235 279.68518 791.96985 273.97327 767.38916 246.38239C 779.1288 273.84732 805.9738 291.79364 835.8405 292.1432C 865.7072 292.49277 892.9649 275.17966 905.3441 247.99701C 917.7233 220.81438 912.8903 188.88686 893.02045 166.58594z" stroke="none" fill="#000000" fill-rule="nonzero" fill-opacity="0.2" />
            <path d="M675.394 91.974L675.601 91.974L679.33 305.732L671.459 305.732L675.394 91.974" stroke="none" fill="#3F3D56" fill-rule="nonzero" />
            <path transform="matrix(0.46585962 0.8848586 -0.8848586 0.46585962 585.3786 -692.64777)"  d="M841.9077 327.96628L845.63605 327.96628L845.63605 342.05115L841.9077 342.05115L841.9077 327.96628z" stroke="none" fill="#3F3D56" fill-rule="nonzero" />
            <path transform="matrix(1 0 0 1 -161.7494 -124.97064)"  d="M656.93384 432.51257C 656.93384 432.51257 657.25226 425.84003 663.7804 426.61557" stroke="none" fill="#3F3D56" fill-rule="nonzero" />
            <path d="M496.60718 297.9249C 496.6072 297.0227 496.2882 296.2526 495.6502 295.6146C 495.01224 294.97662 494.24213 294.65762 493.3399 294.65762C 492.43768 294.65762 491.6676 294.97662 491.0296 295.6146C 490.39163 296.2526 490.07263 297.0227 490.07263 297.9249C 490.07263 298.82715 490.39163 299.59723 491.0296 300.2352C 491.6676 300.87317 492.43768 301.19217 493.3399 301.19217C 494.24213 301.19217 495.01224 300.87317 495.6502 300.2352C 496.2882 299.59723 496.6072 298.82715 496.60718 297.9249" stroke="none" fill="#1890FF" fill-rule="nonzero" />
            <path d="M492.8083 303.4268L493.73056 303.4268L493.73056 309.8827L492.8083 309.8827L492.8083 303.4268z" stroke="none" fill="#3F3D56" fill-rule="nonzero" />
            <path transform="matrix(1 0 0 1 -161.7494 -124.97064)"  d="M775.9067 433.896C 775.9067 433.896 776.2251 427.22345 782.75323 427.999" stroke="none" fill="#3F3D56" fill-rule="nonzero" />
            <path d="M615.58 299.30832C 615.58 298.4061 615.26105 297.636 614.62305 296.99802C 613.9851 296.36005 613.21497 296.04105 612.31274 296.04105C 611.4105 296.04105 610.64044 296.36005 610.00244 296.99802C 609.3645 297.636 609.04553 298.4061 609.0455 299.30832C 609.04553 300.21054 609.3645 300.98065 610.00244 301.61862C 610.64044 302.25662 611.4105 302.57562 612.31274 302.5756C 613.21497 302.57562 613.9851 302.25662 614.62305 301.61862C 615.26105 300.98065 615.58 300.21054 615.58 299.30832" stroke="none" fill="#1890FF" fill-rule="nonzero" />
            <path d="M611.7811 304.81018L612.70337 304.81018L612.70337 311.26608L611.7811 311.26608L611.7811 304.81018z" stroke="none" fill="#3F3D56" fill-rule="nonzero" />
            <path transform="matrix(1 0 0 1 -161.7494 -124.97064)"  d="M579.9243 422.36758C 579.9243 422.36758 580.24274 415.69504 586.7708 416.47058" stroke="none" fill="#3F3D56" fill-rule="nonzero" />
            <path d="M419.59766 287.77994C 419.59766 286.87775 419.2787 286.10764 418.6407 285.46964C 418.00272 284.83167 417.2326 284.51266 416.33038 284.51266C 415.42816 284.51266 414.65808 284.83167 414.02008 285.46964C 413.38214 286.10764 413.06314 286.87775 413.0631 287.77994C 413.06314 288.6822 413.38214 289.45227 414.02008 290.09024C 414.65808 290.7282 415.42816 291.0472 416.33038 291.0472C 417.2326 291.0472 418.00272 290.7282 418.6407 290.09024C 419.2787 289.45227 419.59766 288.6822 419.59766 287.77994" stroke="none" fill="#1890FF" fill-rule="nonzero" />
            <path d="M415.79877 293.2818L416.72104 293.2818L416.72104 299.7377L415.79877 299.7377L415.79877 293.2818z" stroke="none" fill="#3F3D56" fill-rule="nonzero" />
            <path transform="matrix(1 0 0 1 -161.7494 -124.97064)"  d="M630.188 413.606C 630.188 413.606 630.5064 406.93344 637.03455 407.70898" stroke="none" fill="#3F3D56" fill-rule="nonzero" />
            <path d="M469.86136 279.01837C 469.86136 278.11615 469.54236 277.34607 468.9044 276.70807C 468.26642 276.0701 467.49634 275.7511 466.5941 275.7511C 465.6919 275.7511 464.92178 276.0701 464.28378 276.70807C 463.6458 277.34607 463.32684 278.11615 463.3268 279.01837C 463.32684 279.9206 463.6458 280.6907 464.28378 281.32867C 464.92178 281.96667 465.6919 282.28564 466.5941 282.28564C 467.49634 282.28564 468.26642 281.96667 468.9044 281.32867C 469.54236 280.6907 469.86136 279.9206 469.86136 279.01837" stroke="none" fill="#1890FF" fill-rule="nonzero" />
            <path d="M466.06247 284.52026L466.98474 284.52026L466.98474 290.97617L466.06247 290.97617L466.06247 284.52026z" stroke="none" fill="#3F3D56" fill-rule="nonzero" />
            <path transform="matrix(1 0 0 1 -161.7494 -124.97064)"  d="M756.0779 426.05667C 756.0779 426.05667 756.3963 419.38412 762.92444 420.15967" stroke="none" fill="#3F3D56" fill-rule="nonzero" />
            <path d="M595.7512 291.46902C 595.7512 290.5668 595.43225 289.7967 594.79425 289.15872C 594.1563 288.52075 593.3862 288.20175 592.48395 288.20175C 591.5818 288.20175 590.81165 288.52075 590.17365 289.15872C 589.53564 289.7967 589.2167 290.5668 589.2167 291.46902C 589.2167 292.37125 589.53564 293.14136 590.17365 293.77933C 590.81165 294.41733 591.5818 294.73633 592.48395 294.7363C 593.3862 294.73633 594.1563 294.41733 594.79425 293.77933C 595.43225 293.14136 595.7512 292.37125 595.7512 291.46902" stroke="none" fill="#1890FF" fill-rule="nonzero" />
            <path d="M591.9523 296.9709L592.8745 296.9709L592.8745 303.4268L591.9523 303.4268L591.9523 296.9709z" stroke="none" fill="#3F3D56" fill-rule="nonzero" />
            <path transform="matrix(1 0 0 1 -161.7494 -124.97064)"  d="M664.6078 143.16972L668.85284 139.77449C 665.55505 139.41066 664.2 141.20921 663.6455 142.63278C 661.87604 142.0457 659.94824 142.16472 658.26447 142.965L658.26447 142.965L666.75806 146.04848C 666.3295 144.90399 665.5836 143.90538 664.6078 143.16972z" stroke="none" fill="#3F3D56" fill-rule="nonzero" />
            <path transform="matrix(1 0 0 1 -161.7494 -124.97064)"  d="M729.1667 177.75485L733.41174 174.35962C 730.11395 173.99579 728.7589 175.79434 728.2044 177.21791C 726.435 176.63083 724.5072 176.74985 722.82336 177.55013L722.82336 177.55013L731.31696 180.6336C 730.8884 179.48912 730.1425 178.49051 729.1667 177.75485z" stroke="none" fill="#3F3D56" fill-rule="nonzero" />
            <path transform="matrix(1 0 0 1 -161.7494 -124.97064)"  d="M659.53534 207.26749L663.7804 203.87225C 660.4826 203.5084 659.12756 205.30696 658.57306 206.73053C 656.80365 206.14343 654.8758 206.26247 653.192 207.06276L653.192 207.06276L661.6856 210.14622C 661.25714 209.00172 660.5112 208.00313 659.53534 207.26749z" stroke="none" fill="#3F3D56" fill-rule="nonzero" />
            <path transform="matrix(0.95493025 -0.2968303 0.2968303 0.95493025 -278.94373 -13.86844)"  d="M298.99692 441.47318C 298.99692 434.6249 302.698 429.0733 307.2635 429.0733C 311.82898 429.0733 315.53006 434.6249 315.53006 441.47318C 315.53006 448.32144 311.82898 453.87305 307.2635 453.87305C 302.698 453.87305 298.99692 448.32144 298.99692 441.47318" stroke="none" fill="#2F2E41" fill-rule="nonzero" />
            <path transform="matrix(1 0 0 1 -161.7494 -124.97064)"  d="M214.26456 388.15378C 214.26456 388.15378 211.78456 437.7532 216.74455 470.8195C 221.70454 503.88577 227.4911 535.29877 227.4911 535.29877C 227.4911 535.29877 241.54428 524.55225 249.81085 527.8588L249.81085 527.8588L234.931 412.9535L214.26456 388.15378z" stroke="none" fill="#1890FF" fill-rule="nonzero" />
            <path d="M132.28758 181.7574C 132.2876 174.22432 129.62424 167.79443 124.29755 162.46774C 118.97086 157.14105 112.54098 154.4777 105.00789 154.4777C 97.47481 154.4777 91.04492 157.14105 85.71823 162.46774C 80.39154 167.79443 77.728195 174.22432 77.728195 181.7574C 77.728195 189.29048 80.39154 195.72037 85.71823 201.04706C 91.04492 206.37375 97.47481 209.0371 105.00789 209.0371C 112.54098 209.0371 118.97086 206.37375 124.29755 201.04706C 129.62424 195.72037 132.2876 189.29048 132.28758 181.7574" stroke="none" fill="#FFB8B8" fill-rule="nonzero" />
            <path d="M87.235 188.784L75.662 218.544L92.195 225.984L108.728 196.224L87.235 188.784" stroke="none" fill="#FFB8B8" fill-rule="nonzero" />
            <path transform="matrix(1 0 0 1 -161.7494 -124.97064)"  d="M258.8803 342.0691C 258.8803 342.0691 242.37093 331.11444 234.93102 335.24774L234.93102 335.24774L228.31775 350.95422C 228.31775 350.95422 205.17136 379.88724 214.26457 401.3803C 223.35779 422.87338 244.02423 447.6731 244.02423 447.6731L244.02423 447.6731L246.50423 459.2463C 246.50423 459.2463 214.26459 501.40582 217.57123 532.8188L217.57123 532.8188L178.71829 638.6309C 178.71829 638.6309 200.21138 647.7241 272.13055 651.03076C 344.04974 654.3374 344.04974 651.03076 344.04974 651.03076C 344.04974 651.03076 334.9565 474.95276 306.85016 446.84644L306.85016 446.84644L302.71686 433.61993C 302.71686 433.61993 308.50348 396.42035 295.27695 380.71387L295.27695 380.71387L290.8079 371.77573C 284.0943 358.34857 272.75586 347.79886 258.8803 342.0691z" stroke="none" fill="#2F2E41" fill-rule="nonzero" />
            <path transform="matrix(1 0 0 1 -161.7494 -124.97064)"  d="M300.2369 519.5923L301.89023 541.91205C 301.89023 541.91205 299.41022 570.84503 315.9434 565.0585C 332.47656 559.2719 319.25 527.03217 319.25 527.03217L319.25 527.03217L316.77 517.1123L300.2369 519.5923z" stroke="none" fill="#FFB8B8" fill-rule="nonzero" />
            <path transform="matrix(1 0 0 1 -161.7494 -124.97064)"  d="M185.33154 634.4976L176.23833 722.95C 176.23833 722.95 164.66513 729.56323 170.45172 747.7497C 176.23831 765.93616 174.585 775.02936 174.585 775.02936L174.585 775.02936L180.37161 773.37604L182.85161 751.0563C 182.85161 751.0563 192.56483 763.4561 201.03807 765.9361C 206.92226 767.6583 213.00578 768.9819 217.00465 764.3698C 221.66286 758.9974 219.41547 750.7004 212.976 747.6845C 212.32468 747.3773 211.64986 747.1227 210.958 746.923C 205.17139 745.26965 199.3848 722.9499 199.3848 722.9499L199.3848 722.9499L209.30469 682.44366L224.18452 637.8042L185.33154 634.4976z" stroke="none" fill="#2F2E41" fill-rule="nonzero" />
            <path transform="matrix(1 0 0 1 -161.7494 -124.97064)"  d="M297.75693 634.4976L288.6637 722.95C 288.6637 722.95 277.09048 729.56323 282.8771 747.7497C 288.66373 765.93616 287.0104 775.02936 287.0104 775.02936L287.0104 775.02936L292.797 773.37604L295.277 751.0563C 295.277 751.0563 304.99023 763.4561 313.46347 765.9361C 319.34766 767.6583 325.43118 768.9819 329.43005 764.3698C 334.08826 758.9974 331.84088 750.7004 325.4014 747.6845C 324.75006 747.3773 324.07526 747.1227 323.3834 746.923C 317.5967 745.2697 311.8101 722.95 311.8101 722.95L311.8101 722.95L321.73 682.4437L336.60983 637.80426L297.75693 634.4976z" stroke="none" fill="#2F2E41" fill-rule="nonzero" />
            <path transform="matrix(1 0 0 1 -161.7494 -124.97064)"  d="M263.03732 357.56747C 263.03732 357.56747 243.19754 369.1407 248.98415 395.5937C 254.77075 422.0467 295.277 535.29877 295.277 535.29877C 302.48294 528.2829 312.93793 525.7483 322.5567 528.6855L322.5567 528.6855L285.35712 385.67377C 285.35712 385.67377 287.837 353.43417 263.03732 357.56747z" stroke="none" fill="#000000" fill-rule="nonzero" fill-opacity="0.4" />
            <path transform="matrix(1 0 0 1 -161.7494 -124.97064)"  d="M266.344 352.6075C 266.344 352.6075 246.50421 364.18073 252.29082 390.63373C 258.07742 417.08673 298.58362 530.3388 298.58362 530.3388C 305.78952 523.32294 316.2445 520.7884 325.8633 523.7255L325.8633 523.7255L288.6637 380.71387C 288.6637 380.71387 291.14368 348.47424 266.344 352.6075z" stroke="none" fill="#1890FF" fill-rule="nonzero" />
            <path transform="matrix(1 0 0 1 -161.7494 -124.97064)"  d="M291.9772 296.14877C 291.9772 296.14877 296.1797 263.4433 261.89035 274.16818C 261.89035 274.16818 237.4007 269.67468 229.36958 300.3075L229.36958 300.3075L221.23758 332.4182L225.20073 330.2611L227.04837 334.29984L233.47052 335.92624L236.2187 330.4716L237.54816 337.09558L290.14905 342.33945C 290.14905 342.33945 266.59015 328.4069 266.21658 303.43646L266.21658 303.43646L270.70404 308.17856L291.9772 296.14877z" stroke="none" fill="#2F2E41" fill-rule="nonzero" />
            <path d="M85.16811 149.51778C 85.16811 145.86537 83.8768 142.74786 81.29416 140.16522C 78.711525 137.58258 75.59401 136.29126 71.9416 136.29126C 68.2892 136.29126 65.17168 137.58258 62.589035 140.16522C 60.0064 142.74786 58.71508 145.86537 58.715076 149.51778C 58.71508 153.17018 60.0064 156.2877 62.589035 158.87033C 65.17168 161.45297 68.2892 162.7443 71.9416 162.7443C 75.59401 162.7443 78.711525 161.45297 81.29416 158.87033C 83.8768 156.2877 85.16811 153.17018 85.16811 149.51778" stroke="none" fill="#2F2E41" fill-rule="nonzero" />
            <path transform="matrix(1 0 0 1 -161.7494 -124.97064)"  d="M247.31976 271.25037C 246.86871 264.28525 241.07922 258.87158 234.09952 258.88837C 234.37263 258.85373 234.6433 258.81158 234.92178 258.7937C 239.63742 258.49054 244.1566 260.72614 246.777 264.65842C 249.39737 268.5907 249.72087 273.62222 247.62561 277.8577C 245.53035 282.09314 241.33466 284.88907 236.61902 285.19223C 236.34053 285.21014 236.0667 285.20303 235.79138 285.20364C 242.71582 284.32648 247.76442 278.21597 247.31976 271.25037z" stroke="none" fill="#2F2E41" fill-rule="nonzero" />
            <path d="M100.874596 184.23738C 100.874596 181.04153 102.725136 178.45078 105.00789 178.45078C 107.29064 178.45078 109.14118 181.04153 109.14118 184.23738C 109.14118 187.43323 107.29064 190.02399 105.00789 190.02399C 102.725136 190.02399 100.874596 187.43323 100.874596 184.23738" stroke="none" fill="#FFB8B8" fill-rule="nonzero" />
		</g>
	</g>
</g>
</svg>