<?xml version="1.0" standalone="no"?>
<!DOCTYPE svg PUBLIC "-//W3C//DTD SVG 1.0//EN" "http://www.w3.org/TR/2001/REC-SVG-20010904/DTD/svg10.dtd">
<svg xmlns="http://www.w3.org/2000/svg" xmlns:xlink="http://www.w3.org/1999/xlink" id="body_1" width="840" height="758">

<g transform="matrix(1.0057313 0 0 1.0057313 -0 70.694)">
    <path transform="matrix(1 0 0 1 -181.36642 -141.74228)"  d="M970.8003 754.8404L971.75146 753.0816C 958.99805 746.18414 943.12573 737.6006 934.83545 723.5142C 926.6631 709.628 926.47974 690.77155 934.35693 674.3033C 941.06055 660.28766 953.37476 647.731 969.968 637.9903C 973.241 636.0689 976.67676 634.2481 979.9995 632.4869C 988.031 628.2305 996.33594 623.8287 1003.18384 617.58405C 1012.6155 608.983 1019.7517 594.5494 1014.43286 581.69293C 1010.86414 573.32117 1002.8432 567.7092 993.7554 567.22565L993.7554 567.22565L993.6426 569.2227C 1001.968 569.6643 1009.3174 574.8029 1012.59033 582.47076C 1017.53296 594.418 1010.7517 607.97565 1001.8362 616.1065C 995.17554 622.18024 986.9844 626.5215 979.063 630.7198C 975.72144 632.4908 972.26587 634.3223 968.9553 636.2657C 952.01685 646.20905 939.42896 659.06354 932.55273 673.44C 924.39233 690.50055 924.60645 710.0767 933.1118 724.5289C 941.6846 739.0948 957.82837 747.82574 970.8003 754.8404z" stroke="none" fill="#F1F1F1" fill-rule="nonzero" />
    <path d="M782.21313 427.52454C 782.21313 422.8301 790.04816 419.02454 799.71313 419.02454C 809.3781 419.02454 817.21313 422.8301 817.21313 427.52454C 817.21313 432.21896 809.3781 436.02454 799.71313 436.02454C 790.04816 436.02454 782.21313 432.21896 782.21313 427.52454" stroke="none" fill="#F1F1F1" fill-rule="nonzero" />
    <path d="M768.21313 483.52454C 768.21313 478.8301 776.04816 475.02454 785.71313 475.02454C 795.3781 475.02454 803.21313 478.8301 803.21313 483.52454C 803.21313 488.21896 795.3781 492.02454 785.71313 492.02454C 776.04816 492.02454 768.21313 488.21896 768.21313 483.52454" stroke="none" fill="#F1F1F1" fill-rule="nonzero" />
    <path d="M800.21313 492.52454C 800.21313 487.8301 808.04816 484.02454 817.71313 484.02454C 827.3781 484.02454 835.21313 487.8301 835.21313 492.52454C 835.21313 497.21896 827.3781 501.02454 817.71313 501.02454C 808.04816 501.02454 800.21313 497.21896 800.21313 492.52454" stroke="none" fill="#F1F1F1" fill-rule="nonzero" />
    <path d="M750.21313 539.52454C 750.21313 534.83014 758.04816 531.02454 767.71313 531.02454C 777.3781 531.02454 785.21313 534.83014 785.21313 539.52454C 785.21313 544.21893 777.3781 548.02454 767.71313 548.02454C 758.04816 548.02454 750.21313 544.21893 750.21313 539.52454" stroke="none" fill="#F1F1F1" fill-rule="nonzero" />
    <path d="M715.21313 539.52454C 715.21313 534.83014 723.04816 531.02454 732.71313 531.02454C 742.3781 531.02454 750.21313 534.83014 750.21313 539.52454C 750.21313 544.21893 742.3781 548.02454 732.71313 548.02454C 723.04816 548.02454 715.21313 544.21893 715.21313 539.52454" stroke="none" fill="#F1F1F1" fill-rule="nonzero" />
    <path transform="matrix(1 0 0 1 -181.36642 -141.74228)"  d="M318.6526 581.2259L256.55783 581.2259C 253.05687 581.2219 250.21965 578.38495 250.21545 574.88403L250.21545 574.88403L250.21545 370.28613C 250.21965 366.78516 253.05687 363.94818 256.55783 363.94427L256.55783 363.94427L318.6526 363.94427C 322.1536 363.94818 324.9908 366.78516 324.99496 370.28613L324.99496 370.28613L324.99496 574.88403C 324.9908 578.38495 322.1536 581.2219 318.6526 581.2259z" stroke="none" fill="#1890FF" fill-rule="nonzero" />
    <path transform="matrix(1 0 0 1 -181.36642 -141.74228)"  d="M431.89014 581.2259L369.79538 581.2259C 366.2944 581.2219 363.45718 578.38495 363.453 574.88403L363.453 574.88403L363.453 289.09695C 363.45718 285.59598 366.2944 282.759 369.79538 282.7551L369.79538 282.7551L431.89014 282.7551C 435.39114 282.759 438.22836 285.59598 438.2325 289.09695L438.2325 289.09695L438.2325 574.88403C 438.22836 578.38495 435.39114 581.2219 431.89014 581.2259z" stroke="none" fill="#1890FF" fill-rule="nonzero" />
    <path transform="matrix(1 0 0 1 -181.36642 -141.74228)"  d="M545.1277 581.2259L483.03293 581.2259C 479.53195 581.2219 476.69473 578.38495 476.69055 574.88403L476.69055 574.88403L476.69055 370.28613C 476.69473 366.78516 479.53195 363.94818 483.03293 363.94427L483.03293 363.94427L545.1277 363.94427C 548.6287 363.94818 551.46594 366.78516 551.4701 370.28613L551.4701 370.28613L551.4701 574.88403C 551.46594 578.385 548.6287 581.222 545.1277 581.2259z" stroke="none" fill="#1890FF" fill-rule="nonzero" />
    <path transform="matrix(1 0 0 1 -181.36642 -141.74228)"  d="M658.36523 581.2259L596.2705 581.2259C 592.8494 581.29956 590.0133 578.5921 589.9281 575.1713L589.9281 575.1713L589.9281 256.76126C 590.0133 253.34047 592.8494 250.63306 596.2705 250.7067L596.2705 250.7067L658.36523 250.7067C 661.7863 250.63306 664.62244 253.34047 664.70764 256.76126L664.70764 256.76126L664.70764 575.1713C 664.62244 578.5921 661.7863 581.29956 658.36523 581.2259z" stroke="none" fill="#1890FF" fill-rule="nonzero" />
    <path transform="matrix(1 0 0 1 -181.36642 -141.74228)"  d="M771.6028 581.2259L709.508 581.2259C 706.00696 581.222 703.16974 578.385 703.1656 574.88403L703.1656 574.88403L703.1656 199.36153C 703.16974 195.86053 706.00696 193.02354 709.508 193.01967L709.508 193.01967L771.6027 193.01967C 775.10376 193.02354 777.941 195.86053 777.9451 199.36153L777.9451 199.36153L777.9451 574.88403C 777.9409 578.38495 775.1037 581.2219 771.6028 581.2259z" stroke="none" fill="#1890FF" fill-rule="nonzero" />
    <path d="M119.05814 183.74396C 119.05815 180.204 117.80658 177.18245 115.303444 174.6793C 112.80031 172.17618 109.77876 170.9246 106.23879 170.9246C 102.69883 170.9246 99.67728 172.17618 97.17414 174.6793C 94.671005 177.18245 93.41944 180.204 93.41944 183.74396C 93.41944 187.28394 94.671005 190.30548 97.17414 192.80861C 99.67728 195.31174 102.69883 196.56331 106.23879 196.56331C 109.77876 196.56331 112.80031 195.31174 115.303444 192.80861C 117.80658 190.30548 119.05815 187.28394 119.05814 183.74396" stroke="none" fill="#3F3D56" fill-rule="nonzero" />
    <path d="M232.29568 100.4182C 232.2957 96.878235 231.04413 93.85668 228.54099 91.353546C 226.03786 88.85042 223.01631 87.59885 219.47633 87.59885C 215.93637 87.59885 212.91483 88.85042 210.41168 91.353546C 207.90857 93.85668 206.657 96.878235 206.65698 100.4182C 206.657 103.95817 207.90857 106.97972 210.41168 109.48285C 212.91483 111.985985 215.93637 113.23755 219.47633 113.23755C 223.01631 113.23755 226.03786 111.985985 228.54099 109.48285C 231.04413 106.97972 232.2957 103.95817 232.29568 100.4182" stroke="none" fill="#3F3D56" fill-rule="nonzero" />
    <path d="M345.5332 183.74396C 345.5332 180.204 344.28165 177.18245 341.7785 174.6793C 339.2754 172.17618 336.25385 170.9246 332.71387 170.9246C 329.17392 170.9246 326.15237 172.17618 323.64923 174.6793C 321.14612 177.18245 319.89453 180.204 319.89453 183.74396C 319.89453 187.28394 321.14612 190.30548 323.64923 192.80861C 326.15237 195.31174 329.17392 196.56331 332.71387 196.56331C 336.25385 196.56331 339.2754 195.31174 341.7785 192.80861C 344.28165 190.30548 345.5332 187.28394 345.5332 183.74396" stroke="none" fill="#3F3D56" fill-rule="nonzero" />
    <path d="M458.77075 59.82361C 458.77075 56.283646 457.5192 53.262093 455.01605 50.758957C 452.51294 48.255825 449.4914 47.004257 445.95142 47.004257C 442.41147 47.004257 439.38992 48.255825 436.88678 50.758957C 434.38367 53.262093 433.13208 56.283646 433.13208 59.82361C 433.13208 63.36358 434.38367 66.38513 436.88678 68.88826C 439.38992 71.391396 442.41147 72.64296 445.95142 72.64296C 449.4914 72.64296 452.51294 71.391396 455.01605 68.88826C 457.5192 66.38513 458.77075 63.36358 458.77075 59.82361" stroke="none" fill="#3F3D56" fill-rule="nonzero" />
    <path d="M572.0083 12.81935C 572.0083 9.279385 570.7567 6.2578344 568.2536 3.7547007C 565.7505 1.2515669 562.72894 0 559.18896 0C 555.64905 0 552.62744 1.2515669 550.1243 3.7547007C 547.6212 6.2578344 546.3696 9.279385 546.3696 12.81935C 546.3696 16.359318 547.6212 19.380867 550.1243 21.883999C 552.62744 24.387135 555.64905 25.638702 559.18896 25.6387C 562.72894 25.638702 565.7505 24.387135 568.2536 21.883999C 570.7567 19.380867 572.0083 16.359318 572.0083 12.81935" stroke="none" fill="#3F3D56" fill-rule="nonzero" />
    <path transform="matrix(1 0 0 1 -181.36642 -141.74228)"  d="M844.3664 583.60675L182.3664 583.60675C 182.00912 583.60675 181.679 583.41614 181.50037 583.10675C 181.32173 582.79736 181.32173 582.41614 181.50037 582.10675C 181.679 581.79736 182.00912 581.60675 182.3664 581.60675L182.3664 581.60675L844.3664 581.60675C 844.9187 581.60675 845.3664 582.05444 845.3664 582.60675C 845.3664 583.15906 844.9187 583.60675 844.3664 583.60675z" stroke="none" fill="#CBCBCB" fill-rule="nonzero" />
    <path transform="matrix(1 0 0 1 -181.36642 -141.74228)"  d="M1009.3664 754.60675L685.3664 754.60675C 684.8141 754.60675 684.3664 754.15906 684.3664 753.60675C 684.3664 753.05444 684.8141 752.60675 685.3664 752.60675L685.3664 752.60675L1009.3664 752.60675C 1009.9187 752.60675 1010.3664 753.05444 1010.3664 753.60675C 1010.3664 754.15906 1009.9187 754.60675 1009.3664 754.60675z" stroke="none" fill="#CBCBCB" fill-rule="nonzero" />
    <path transform="matrix(1 0 0 1 -181.36642 -141.74228)"  d="M801.3017 567.3529C 802.9663 565.69867 803.8126 563.39197 803.613 561.05365C 803.4133 558.71533 802.18823 556.5856 800.2673 555.23737L800.2673 555.23737L804.199 537.5478L794.0318 532.5366L788.8303 557.5957C 786.73334 561.04865 787.5504 565.52435 790.73224 568.0136C 793.914 570.5029 798.4548 570.21906 801.3017 567.35284L801.3017 567.35284L801.3017 567.3529z" stroke="none" fill="#FFB7B7" fill-rule="nonzero" />
    <path transform="matrix(1 0 0 1 -181.36642 -141.74228)"  d="M912.48517 567.74066C 914.0168 565.9625 914.68207 563.5973 914.3021 561.2815C 913.9222 558.96564 912.53595 556.937 910.5165 555.7415L910.5165 555.7415L913.06775 537.8008L902.54333 533.59125L899.2963 558.97766C 897.4727 562.5825 898.6336 566.98157 901.9985 569.2173C 905.36334 571.45294 909.8685 570.81854 912.4852 567.74066L912.4852 567.74066L912.48517 567.74066z" stroke="none" fill="#FFB7B7" fill-rule="nonzero" />
    <path d="M651.862 602.078L641.494 602.077L636.562 562.087L651.864 562.088L651.862 602.078L651.862 602.078" stroke="none" fill="#FFB7B7" fill-rule="nonzero" />
    <path transform="matrix(1 0 0 1 -181.36642 -141.74228)"  d="M835.8727 753.8702L802.44226 753.86896L802.44226 753.4461C 802.4427 746.26 808.2681 740.4347 815.4543 740.43427L815.4543 740.43427L815.45514 740.43427L835.8733 740.4351L835.8727 753.8702z" stroke="none" fill="#2F2E41" fill-rule="nonzero" />
    <path d="M686.535 602.078L676.167 602.077L671.235 562.087L686.537 562.088L686.535 602.078L686.535 602.078" stroke="none" fill="#FFB7B7" fill-rule="nonzero" />
    <path transform="matrix(1 0 0 1 -181.36642 -141.74228)"  d="M870.5456 753.8702L837.1152 753.86896L837.1152 753.4461C 837.11566 746.26 842.94116 740.43463 850.12726 740.43427L850.12726 740.43427L850.12805 740.43427L870.5462 740.4351L870.5456 753.8702z" stroke="none" fill="#2F2E41" fill-rule="nonzero" />
    <path transform="matrix(1 0 0 1 -181.36642 -141.74228)"  d="M888.7766 407.3724L899.95624 403.33804C 899.95624 403.33804 904.7014 404.3457 904.7014 417.21405C 904.7014 430.0824 917.3034 550.0963 917.3034 550.0963L917.3034 550.0963L895.2491 555.9032L882.7836 442.04L888.7766 407.3724z" stroke="none" fill="#2F2E41" fill-rule="nonzero" />
    <path transform="matrix(1 0 0 1 -181.36642 -141.74228)"  d="M814.0704 407.3724L802.89075 403.33804C 802.89075 403.33804 798.14557 404.3457 798.14557 417.21405C 798.14557 430.0824 785.5436 550.0963 785.5436 550.0963L785.5436 550.0963L807.5979 555.9032L820.06335 442.04L814.0704 407.3724z" stroke="none" fill="#2F2E41" fill-rule="nonzero" />
    <path transform="matrix(1 0 0 1 -181.36642 -141.74228)"  d="M814.2135 544.2494L811.1577 634.401L817.92334 734.1248L835.3555 734.52765L837.8925 641.5027L852.2691 594.99023L850.81866 732.0825L870.55774 731.84674L882.7835 637.5284C 882.7835 637.5284 898.92804 559.4717 889.9751 544.2494L889.9751 544.2494L848.7431 530.5381L814.2135 544.2494z" stroke="none" fill="#2F2E41" fill-rule="nonzero" />
    <path transform="matrix(1 0 0 1 -181.36642 -141.74228)"  d="M814.5498 533.38617L813.5548 555.07306C 813.5548 555.07306 827.4662 561.99585 851.91864 557.7788C 876.3711 553.56177 892.6251 556.3418 892.6251 556.3418L892.6251 556.3418L890.7477 528.69617L814.5498 533.38617z" stroke="none" fill="#E5E5E5" fill-rule="nonzero" />
    <path transform="matrix(1 0 0 1 -181.36642 -141.74228)"  d="M802.446 403.65842L834.59973 389.5688L836.5175 382.18927L867.7971 383.0954L869.1487 390.63425L899.95624 403.33807L886.383 450.53525L887.775 483.7371L904.7014 544.2494C 904.7014 544.2494 890.42444 556.3742 856.1246 551.1575L856.1246 551.1575L850.2061 539.2319L846.5858 551.8435C 846.5858 551.8435 816.5087 562.90796 808.1728 548.5046L808.1728 548.5046L814.2135 444.459L802.446 403.65842z" stroke="none" fill="#2F2E41" fill-rule="nonzero" />
    <path d="M691.27734 212.74355C 691.27734 207.00786 689.2495 202.11212 685.1937 198.05637C 681.138 194.00063 676.24225 191.97275 670.50653 191.97275C 664.7708 191.97275 659.8751 194.00063 655.81934 198.05637C 651.7636 202.11212 649.7357 207.00786 649.7357 212.74355C 649.7357 218.47925 651.7636 223.37497 655.81934 227.43073C 659.8751 231.48648 664.7708 233.51436 670.50653 233.51434C 676.24225 233.51436 681.138 231.48648 685.1937 227.43073C 689.2495 223.37497 691.27734 218.47925 691.27734 212.74355" stroke="none" fill="#FFB7B7" fill-rule="nonzero" />
    <path transform="matrix(1 0 0 1 -181.36642 -141.74228)"  d="M876.55255 346.43738C 876.18115 344.74698 875.46686 343.1508 874.45386 341.74753C 874.0499 337.86707 872.7554 334.1323 870.6711 330.83423C 869.85474 329.2888 868.69543 327.95074 867.2821 326.9226C 865.6637 325.99048 863.8167 325.53 861.9502 325.59326C 861.6117 325.58762 861.00275 325.69025 860.4546 325.71527C 860.10394 325.6067 859.74994 325.50977 859.3951 325.41864C 859.18787 324.9579 858.7774 323.61508 858.66296 323.70602L858.66296 323.70602L857.1157 324.93536C 856.4616 324.82175 855.804 324.7332 855.14404 324.663C 854.90375 323.97763 854.66345 323.29224 854.4231 322.6068C 854.0333 323.2199 853.6916 323.86224 853.4009 324.528C 852.744 324.49585 852.0867 324.48456 851.4288 324.49417L851.4288 324.49417L850.1138 323.23093C 849.95557 323.95078 849.38605 324.5086 848.663 324.65192C 848.0579 324.714 847.45526 324.7951 846.8546 324.89172C 846.8057 324.89142 846.75616 324.89172 846.7082 324.8905C 843.46967 324.80975 839.98505 324.6645 837.2769 326.44244C 836.0098 327.3125 834.97833 328.4833 834.2748 329.84995C 833.94324 330.07532 833.6106 330.299 833.28845 330.53793C 832.2023 331.27884 831.26086 332.21216 830.5107 333.29184C 829.9653 334.22308 829.55164 335.22543 829.28156 336.27023C 828.2481 339.41486 827.7693 342.71524 827.8666 346.02393C 827.9773 349.3552 829.2342 352.54617 831.42505 355.0581C 832.814 356.5504 834.5796 357.6524 835.9704 359.14294C 838.8341 362.21204 839.3709 366.4925 841.8203 369.73993C 844.4111 373.17468 849.1396 375.43494 853.2923 376.08276C 858.335 376.8427 863.4726 375.5614 867.56775 372.52246C 868.54083 371.8448 869.36743 370.97812 869.9983 369.97412C 871.43964 367.48105 870.82874 364.3476 871.36383 361.51804C 872.3669 356.21426 877.42847 351.7635 876.55255 346.43738z" stroke="none" fill="#2F2E41" fill-rule="nonzero" />
    <path d="M105.555 184.546L104.361 182.942L219.477 97.239L332.348 181.429L446.764 57.205L446.969 57.121L558.009 11.292L558.772 13.141L447.936 58.885L332.597 184.11L219.476 99.733L105.555 184.546L105.555 184.546" stroke="none" fill="#3F3D56" fill-rule="nonzero" />
</g>
</svg>